<svg xmlns="http://www.w3.org/2000/svg" xmlns:xlink="http://www.w3.org/1999/xlink" width="87.494" height="29.799" viewBox="0 0 87.494 29.799">
  <defs>
    <clipPath id="clip-path">
      <rect id="Rectangle_17742" data-name="Rectangle 17742" width="87.494" height="29.799" fill="#13171d"/>
    </clipPath>
  </defs>
  <g id="Group_12049" data-name="Group 12049" transform="translate(0 0)">
    <g id="Group_12039" data-name="Group 12039" transform="translate(0 0)" clip-path="url(#clip-path)">
      <path id="Path_16258" data-name="Path 16258" d="M1.1,40.258a.038.038,0,0,1-.039-.039H1.1a.038.038,0,0,1,.039.039Zm2.763-7.2V33.1l-.039.039L3.781,33.1c.039,0,.039-.039.078-.039m5.41-3.619c0,.078-.078.078-.117.078.039-.039.078-.078.117-.078M4.132,32.825a.038.038,0,0,1,.039-.039c.039,0,.039,0,.039.039-.039,0-.039.039-.078.039Zm-.506,1.868a.039.039,0,1,1,0,.078H3.587c0-.039,0-.039.039-.078M.473,40.8a.039.039,0,1,1,.039-.039.038.038,0,0,1-.039.039M7.751,30.412a.192.192,0,0,0,.117-.039l-.078.078c-.039,0-.078,0-.039-.039m3.113-2.063c0-.039,0-.078.039-.078l.039.039a.084.084,0,0,1-.078.078c0,.039-.039,0,0-.039M4.093,34.3a.038.038,0,0,0,.039-.039v.078c-.039.039-.039.078-.078.039H4.015a.084.084,0,0,1,.078-.078m2.1,3.814c-.039.039-.078,0-.078.039v-.078c0-.039.039-.039.078-.039.039.039.039.078,0,.078M3.431,33.409c0-.039.039-.039.078-.078l.039.039a.084.084,0,0,1-.078.078.038.038,0,0,1-.039-.039M8.3,29.945c.039,0,.039.078.039.078-.039.078-.078.078-.117.039,0-.039,0-.117.078-.117m-.623.35c.039-.039.078-.078.117-.078,0,.039-.039.117-.039.156a.073.073,0,0,1-.117,0,.136.136,0,0,1,.039-.078M6.155,38.274c-.039.039-.078,0-.117,0-.039-.078,0-.117.078-.117,0,.039.078.039.039.117m3-8.757c-.039.078-.078.117-.156.039a.038.038,0,0,1-.039-.039c.039,0,.117-.078.195,0M9.7,29.05a.054.054,0,0,1,.078,0v.078a.916.916,0,0,1-.311.078A.814.814,0,0,1,9.7,29.05m-.973.584.195-.117c-.039.039-.039.117-.078.195a.084.084,0,0,1-.078.078.136.136,0,0,1-.078-.039c-.039-.078,0-.078.039-.117M1.8,40.57c-.078-.039-.195-.039-.156-.117.039-.117.117-.039.195,0,.039,0,.117,0,.117.078a.1.1,0,0,1-.156.039M8.218,30.062a.384.384,0,0,1-.272.272.075.075,0,0,0,.039-.117c-.039-.039-.078,0-.156,0,.117-.078.234-.195.389-.156M6.311,23.1a1.05,1.05,0,0,1-.584-.039.606.606,0,0,1,.584.039M5.027,39.052l.9-.739A.136.136,0,0,0,6,38.351a2.82,2.82,0,0,1-.973.7M2.38,40.609c-.078,0-.234,0-.234-.078,0-.156.156-.117.234-.117a2.472,2.472,0,0,1,.9.195,1.4,1.4,0,0,1-.9,0m1.868-6.5,1.09-.934c.039,0,.078-.078.195-.039,0,.078-.078.156-.117.234l-.817.584-.195.195c-.078.039-.156.117-.234.117-.039-.078.039-.117.078-.156m-.117-9.5c-.078-.078-.039-.117.039-.195a2.589,2.589,0,0,1,1.245-.662.537.537,0,0,1,.35,0,.31.31,0,0,1,.389.078c.078.078.234.039.35.078.078.078.078.117-.039.156,0,.039-.039,0-.039.039-.039.156-.078.156-.195.078,0-.039,0-.117-.039-.078-.195.156-.428.078-.662.078a2.5,2.5,0,0,0-1.168.428c-.117.078-.156.117-.234,0M3.9,39.246a.054.054,0,0,1-.078,0c-.311-.078-.623.078-.934.078-.195,0-.428.039-.623.039a.323.323,0,0,1-.311-.117c.039-.117.156-.039.195-.117,0-.039-.078-.039-.117-.078s-.117-.078-.117-.156c.039-.117.117-.039.195-.039a7.676,7.676,0,0,0,1.635-.078,4.879,4.879,0,0,0,.973-.35.722.722,0,0,1,.272-.078c.039-.039.117,0,.078.039,0,.234.156.117.234.117h.039a.136.136,0,0,1-.039.078,3.115,3.115,0,0,1-1.4.662M1.6,37.417a4.585,4.585,0,0,1,.428-.739,12.685,12.685,0,0,1,2.024-2.063l1.323-1.051c.35-.272.467-.272.662.156A4.59,4.59,0,0,1,6.506,35l.156.778a1.5,1.5,0,0,1-.467,1.129,4.167,4.167,0,0,1-.856.584l-.934.467a5.912,5.912,0,0,1-.778.234,1.728,1.728,0,0,1-.778.039,1.282,1.282,0,0,1-.545,0,1.161,1.161,0,0,1-.662-.311.4.4,0,0,1-.039-.506m2.646,5.059c.272-.117.545-.311.817-.428a2.159,2.159,0,0,0,.856-.545l.506-.467a.434.434,0,0,0,.234-.545c-.117,0-.156.078-.195.156a.5.5,0,0,1-.156.234,3.814,3.814,0,0,1-.856.506,3.367,3.367,0,0,0-.662.272,3.3,3.3,0,0,1-.856.35L3,42.243a1.843,1.843,0,0,1-.662-.039c-.039,0-.117,0-.117-.078.078-.117-.039-.117-.117-.156l-.35-.117c-.234-.039-.35-.234-.467-.467a7.262,7.262,0,0,0,.856.272,2.155,2.155,0,0,0,.7.078c.156,0,.311,0,.35-.234.078.039,0,.156.117.156.039-.195.156-.234.35-.195a1.136,1.136,0,0,0,.35-.078l1.362-.467a1.237,1.237,0,0,0,.35-.117,5.879,5.879,0,0,0,.7-.35c.078-.078.156-.156.272-.078.078.039.078,0,.078-.039-.039-.078,0-.078.039-.117a2.337,2.337,0,0,0,.856-1.245.3.3,0,0,0,.078-.156,4.727,4.727,0,0,0,.35-.778.3.3,0,0,1,.078-.156c.117-.195.117-.195.272-.039a.351.351,0,0,0,.039-.195,19.2,19.2,0,0,0,.117-2.14A10.878,10.878,0,0,0,8.3,33.292a9.573,9.573,0,0,1-.272-1.129.5.5,0,0,1,.195-.584c.039-.039.078-.078.117-.078.817-.584,1.557-1.245,2.335-1.868a1.584,1.584,0,0,0,.545-.467.2.2,0,0,0-.156.078c-.545.389-1.09.817-1.6,1.245l-1.09.817-.195.117c-.039.039-.117.078-.156,0s.039-.117.078-.156L8.529,31l2.491-1.868a7.33,7.33,0,0,0,1.4-1.284c.195-.195.428-.389.623-.623a1.308,1.308,0,0,0,.389-.623c0-.078.039-.195-.117-.195-.078.039-.078-.039-.039-.078,0-.078.117-.117.039-.195-.039,0-.078.039-.117.039l-.856.662a12.358,12.358,0,0,1-1.44,1.051c-1.09.7-2.179,1.362-3.308,2.024a.6.6,0,0,1-.9-.234c-.35-.545-.739-1.09-1.09-1.673-.428-.584-.817-1.206-1.206-1.829a.916.916,0,0,1-.078-.311c0-.117.117-.272-.117-.311l-.039-.039c.078-.234.078-.467.311-.584A3.055,3.055,0,0,1,6.506,24.5c.234.039.272.078.311.35,0,.234.039.467.039.7,0,.117,0,.195.117.272a.284.284,0,0,1,.078.35.913.913,0,0,0,.078.467c.039.078.039.078.117.078.156-.039.272.078.35.234.039.156.234.234.234.428a.56.56,0,0,1,.117.078,2.693,2.693,0,0,0,1.09.195c.078-.039.117-.039.117-.078,0-.078-.039-.078-.078-.117a2.126,2.126,0,0,0-.7-.234.535.535,0,0,1-.311-.195.143.143,0,0,1-.039-.117.073.073,0,0,1,.117,0h.078c.195.156.467.117.7.234a.454.454,0,0,0,.272-.078.59.59,0,0,1,.311-.156.354.354,0,0,0,.311-.156c-.078-.078-.195-.078-.234-.156.078-.039.195.039.272-.039a1.351,1.351,0,0,0-.467-.739,1.43,1.43,0,0,1-.35-.623c-.039-.117,0-.195-.078-.272-.156-.117-.117-.272-.078-.428a.257.257,0,0,0,.039-.234c-.117-.117,0-.272-.117-.428-.039-.039.039-.039.039-.078.039-.195.234-.311.272-.467a2.325,2.325,0,0,1,.234-.428l.117-.195a.277.277,0,0,1,.117-.234c.117-.039.117-.156.039-.234a1.032,1.032,0,0,1-.234-.195c.039-.039.078-.078.117-.078.039-.039.078-.078.039-.117s-.078-.078-.117-.039l-.817.195c-.039.039-.078.078-.156,0a1.136,1.136,0,0,0,.078-.35.411.411,0,0,1,.234-.272c.195,0,.272-.195.35-.311.039-.078.039-.117-.039-.156a.592.592,0,0,0-.662.039l-.195.156a7.459,7.459,0,0,0-.7.856c-.117.156-.156.156-.311,0l-.234-.272-.039.039c-.078.078.117.078.078.195-.195-.039-.234-.039-.195.117,0,.117-.078.117-.156.078A.79.79,0,0,0,6,22.123H5.922a3.321,3.321,0,0,0-.623,0,.973.973,0,0,0-.545.156,4.086,4.086,0,0,1-.817.467,1.444,1.444,0,0,0,.078-.35c.039-.234.117-.467.428-.506a.121.121,0,0,0,.078-.039A1.944,1.944,0,0,1,6,21.772l.156.078c.078,0,.156-.078.117-.156a.2.2,0,0,0-.078-.156,1.928,1.928,0,0,0-1.712-.234,2.28,2.28,0,0,0-1.051.7,7.6,7.6,0,0,0-.662.9c-.117.195-.156.389-.35.506-.039,0-.078.078-.078.156a1.077,1.077,0,0,0-.039.35A9.84,9.84,0,0,0,2.264,25c0,.467,0,.973.039,1.44a.494.494,0,0,0,.039.234.869.869,0,0,1,.117.545,1.077,1.077,0,0,0,.117.506,3.9,3.9,0,0,0,.389.817c.428.739.9,1.44,1.362,2.14a2.917,2.917,0,0,1,.389.778.282.282,0,0,1-.078.311l-.156.156a9.619,9.619,0,0,0-1.051.817,15.354,15.354,0,0,0-2.257,2.491,10.114,10.114,0,0,0-.817,1.4,2.214,2.214,0,0,0-.35,1.284v.039c0,.506,0,1.051.039,1.557a.578.578,0,0,0,.078.35,1.374,1.374,0,0,1,.117.545.908.908,0,0,0,.234.7H.512c.039-.039-.039-.117.039-.156A.038.038,0,0,1,.59,41a.084.084,0,0,1,.078.078,3,3,0,0,0,.817.9l.078.078a.3.3,0,0,0,.272.311,4.105,4.105,0,0,0,.934.234,2.4,2.4,0,0,0,1.479-.117" transform="translate(0 -12.86)" fill="#13171d"/>
      <path id="Path_16259" data-name="Path 16259" d="M41.445,27.951c.039.156.039.156-.156.272a.394.394,0,0,0,.156-.272M32.494,38.265a.038.038,0,0,1-.039.039.143.143,0,0,1-.117-.039c-.039-.039,0-.039,0-.039.078-.078.078,0,.117.039Zm1.012-3.347a.351.351,0,0,1,.195.039c0,.039,0,.039-.039.039a.155.155,0,0,1-.156-.078m7.044-6.227a.535.535,0,0,1-.311.195c.078-.117.234-.117.311-.195M33.623,34.84c.078-.039.117-.039.156,0s0,.039,0,.078a.2.2,0,0,1-.156-.078m.234-.272s.039-.039.039,0c.078,0,.117,0,.117.078,0,.039,0,.039-.039.039s-.078-.039-.117-.117m.195-1.673c-.039,0-.117,0-.117-.078.039-.039.117,0,.156-.039a.038.038,0,0,1,.039.039.084.084,0,0,1-.078.078m.117-.195c-.039,0-.117,0-.078-.039,0-.039.117-.039.156-.078,0-.039.039,0,.078,0-.039.078-.117.078-.156.117M32.1,30.286c.078-.039.117.039.156.078,0,.039-.039.039-.078.039s-.078-.039-.117-.078a.038.038,0,0,1,.039-.039m1.635,4.437c0-.039.039-.078.078-.039.039,0,.078.039.156.078a.143.143,0,0,1-.117.039c-.039-.039-.117,0-.117-.078M32.1,31.843c.078.039.156.039.195.078a.038.038,0,0,1-.039.039c-.117-.039-.195,0-.272-.117a.038.038,0,0,1,.039-.039.121.121,0,0,0,.078.039M31.6,36.63c0,.078-.039.039-.039.039-.078,0-.117-.078-.156-.117,0-.039.039-.039.078-.039.078,0,.156,0,.117.117M31.4,38.148l-.039-.039a.084.084,0,0,1,.078-.078c.039-.039.078-.039.078,0l.117.117c-.078.039-.156-.039-.234,0m2.569-3.7c.117-.039.195,0,.195-.156.117.117-.117.195.039.272-.117.039-.156-.078-.234-.117M30.665,36.28c0-.039,0-.039.039-.039s0,.039.039.039c0,.078.039.117.078.039.039,0,.039-.039.078,0,0,0,.039.039,0,.117a.038.038,0,0,1-.039.039.143.143,0,0,1-.117-.039.084.084,0,0,0-.078-.078c-.039-.039-.039-.078,0-.078m2.8-1.129c-.078.078-.234.117-.311.195.039-.156.195-.156.234-.272a.143.143,0,0,1,.117-.039l.039.039c0,.078-.039.039-.078.078m-1.206,1.44c-.039,0-.039.039-.078.039-.078,0-.272-.117-.272-.195-.039-.039,0-.039,0-.039a.782.782,0,0,1,.311.156c.039,0,.039,0,.039.039m1.323-4.553a.038.038,0,0,1-.039.039.578.578,0,0,0-.234.039A4.866,4.866,0,0,1,32.572,32c-.039-.039-.078-.039-.078-.078s.039,0,.078,0a4.23,4.23,0,0,1,.7.039c.078,0,.156.078.272.039Zm-1.518,3.269c0-.039-.039,0-.039.039a.155.155,0,0,1-.156.078c-.117-.039-.195-.078-.195-.195.078-.039.117,0,.156.039a.143.143,0,0,0,.117-.039c0-.078,0-.117-.078-.117-.039,0-.039-.039-.039-.078s.039,0,.039-.039c.117,0,.234.039.272-.078.078.156.234-.078.311.039a1.754,1.754,0,0,0,.428-.117A.143.143,0,0,1,33,34.8c0,.039.039.078,0,.117,0,.039-.078.156.078.117.039,0,0,.078,0,.078a.819.819,0,0,1-.584.195,1.577,1.577,0,0,1-.428,0m-.234-2.841c.156.117.389.117.545.195a2.914,2.914,0,0,0,.817.078h.117c.039,0,.117,0,.117-.039.039-.039-.039-.039-.039-.117.156,0,.272.039.389-.039.039.117,0,.195.039.311a.038.038,0,0,1-.039.039,1.624,1.624,0,0,1-1.129.156c-.039,0-.156,0-.117-.117.039-.039-.039-.039-.078-.039-.195-.039-.35-.195-.545-.234-.078,0-.078-.078-.117-.156a.038.038,0,0,1,.039-.039m6.3-2.88c.545-.234,1.129-.467,1.673-.739a.3.3,0,0,1,.195-.078c.272.039.428-.195.662-.311a.553.553,0,0,1,.234-.078c.039-.078.117-.117.156-.156.117.156,0,.195-.078.234a.814.814,0,0,0-.234.156c-.039,0-.078.117-.156,0-.039-.039-.117,0-.156.039-.117.156-.311.195-.467.311-.117.039-.195.078-.195.234-.039-.039-.078-.078-.117-.078-.078.039-.039.117-.078.156-.039,0,0-.078-.039-.078s0,.078-.039.117c0-.078-.078-.117-.117-.039-.117.078-.311.078-.389.195a.142.142,0,0,1-.195.078H38.76c-.078.156-.272.078-.389.195-.039.039-.117.039-.078.156.039.039-.039,0-.039.039s-.039,0-.039,0c-.039-.078-.078-.117-.117-.078-.039,0-.078.039-.117,0,0-.039.039-.039.078-.078-.078-.039-.117,0-.156,0,.039-.117.156-.156.234-.195m-.272,1.557a2.934,2.934,0,0,1,.506-.234c.623-.35,1.245-.7,1.829-1.09a2.363,2.363,0,0,0,.389-.272.073.073,0,0,1,.117,0c.039.039,0,.078-.039.117a7.9,7.9,0,0,1-1.012.7c-.389.272-.778.467-1.168.7a5.231,5.231,0,0,1-.934.467c-.039,0-.078.039-.117,0Zm-2.646-.35a1.346,1.346,0,0,0-.467.272c-.078.078-.156.039-.234.039-.039,0-.078-.039-.078,0-.078.156-.234-.078-.311.078a2.569,2.569,0,0,0-.545.039,4.069,4.069,0,0,1-.973,0,.627.627,0,0,1-.272-.156c.156-.039.311.117.506.078-.156-.117-.35-.117-.506-.311.156.078.234.039.35.078a3.561,3.561,0,0,0,.662.039,5.652,5.652,0,0,0,1.09-.156c.078,0,.117-.039.195-.039a.958.958,0,0,1,.467-.039c.117,0,.195-.078.311-.039-.039.117-.117.117-.195.117m-4.2,6.733c.039-.039.078.039.117.039.156,0,.234.156.428.078a.188.188,0,0,1,.234.039c.078.078.117,0,.195,0,.078.039.078-.039.117-.117,0-.039.078-.078.078-.156a.038.038,0,0,1,.039-.039c.234.078.428-.078.623-.156.078-.039.117-.039.156,0a.722.722,0,0,0,.272-.078l.234-.078c.078,0,.156-.078.234-.117.078-.078.195-.078.234-.156.039-.039.078,0,.117,0,0,.039.078.039.039.117,0,.039-.078,0-.117.039.039.156.039.156-.156.117.078.078.039.117,0,.156a1.856,1.856,0,0,1-.934.428c-.039.039-.117.039-.117.078-.078.195-.311.156-.428.234a1.268,1.268,0,0,1-.506.156c-.078,0-.156,0-.195-.078a.173.173,0,0,0-.234-.078c-.234.039-.311-.156-.389-.272a.294.294,0,0,1-.039-.156m.234-4.67c0-.078,0-.117.117-.117.078.039.078,0,.117-.039.039-.078.078-.078.117-.039.078.078.156.078.195.156.039,0,.156,0,.039.078,0,.039.039.039.078.078a.742.742,0,0,0,.389.195,7.8,7.8,0,0,0,.934.156c.234.039.467,0,.739.039.039,0,.078-.039.117.039,0,.039-.039.078-.078.117a4.515,4.515,0,0,1-.817.623c-.078.039-.234.039-.311.117a.7.7,0,0,1-.389.078.328.328,0,0,0-.272.078c0-.156,0-.156-.117-.078-.039.039-.078.039-.078,0-.039-.195-.156-.078-.234-.117-.039-.039-.078.039-.078.078.039.039.039.078.117.039a.038.038,0,0,1,.039.039c.039.039,0,.039-.039.039-.039.039-.156.078-.195,0l-.311-.234a.073.073,0,0,1,0-.117.248.248,0,0,0,0-.234,2.035,2.035,0,0,1-.078-.973m.739-3.113a5.556,5.556,0,0,1,.584-1.051c.195-.272.428-.467.623-.739a1.032,1.032,0,0,1,.195-.234l.506-.467.389-.311.35-.311.311-.272a3.387,3.387,0,0,1,.428-.35.365.365,0,0,1,.428-.078c.117.078.234.039.35.039.078-.039.156-.039.156.039a1.956,1.956,0,0,1,.234.934,5.788,5.788,0,0,1-.195,1.4l-.078.428-.117.506a.121.121,0,0,0-.039.078.853.853,0,0,1-.545.739,5.511,5.511,0,0,1-.856.272,4.943,4.943,0,0,1-1.323.195.838.838,0,0,0-.311,0c-.039-.078-.156.039-.156-.078-.078.117-.156-.039-.234,0H32.65c-.078,0-.039.078-.078.078-.078,0,0-.078-.078-.117-.039,0-.039-.039-.039-.117a.2.2,0,0,0-.156-.078.143.143,0,0,1-.117-.039l-.195-.272c-.039-.039,0-.117,0-.195m8.873-.311c0,.117-.039.117-.156.117,0-.117.039-.156.156-.117-.078-.078.039-.117.078-.117l.428-.389.272-.195a.818.818,0,0,0,.272-.428,1.931,1.931,0,0,0,.117-.506c-.078.117-.234,0-.35.117a2.139,2.139,0,0,1,.272-.35s.039-.039,0-.039a.038.038,0,0,0-.039-.039.562.562,0,0,0-.272.078l-1.051.623a18.189,18.189,0,0,1-1.985.9l-.467.195c-.078,0-.195,0-.195-.078a.838.838,0,0,1,0-.311,1.2,1.2,0,0,0,.039-.389,14.427,14.427,0,0,0,.078-2.257,10.36,10.36,0,0,0-.272-1.518,2.518,2.518,0,0,1-.156-.506c-.039-.117-.156-.117-.195-.195a.756.756,0,0,0-.428-.35,2.3,2.3,0,0,0-.545-.234c-.117-.078-.117-.078-.039-.195V23.2l-.078-.156a.759.759,0,0,0-.7-.311c-.039,0-.039.039-.078.039a1.078,1.078,0,0,0-.506.039l-.856.428a2.727,2.727,0,0,1-.389.311.89.89,0,0,0-.389.272c-.078.117-.234.117-.272.272l-.039.039c-.078,0-.117.117-.234.117,0,.156-.195.195-.311.311-.039.039-.039.039-.039.078s.039.078,0,.117c-.234-.117-.117.117-.156.195-.078-.039-.039-.117-.078-.117-.039.078,0,.195-.039.156-.117,0-.039.078-.078.117s0,.117-.078.117a.523.523,0,0,0-.272.234c-.039.078,0,.195-.156.195v.039l-.234.389a1.049,1.049,0,0,1-.272.311c-.039.078-.039.078-.117.039,0,.078.156.117,0,.195v.039c.039.039,0,.039-.039.039-.117-.039-.117.078-.117.117.039.039,0,.078-.039.117-.117.195-.156.389-.272.623l-.234.545a2.3,2.3,0,0,1-.234.545c-.078.156-.039.35-.234.389-.039.039.039.078.039.156s-.117-.039-.117.039c.039.078.117.195-.039.195v.039c-.039.078-.039.234-.078.272-.156.156-.117.389-.195.545a.662.662,0,0,1-.039.272l-.078.272c-.039.156,0,.35-.039.506a3.79,3.79,0,0,0-.078.934,5.2,5.2,0,0,1,0,.778,3.38,3.38,0,0,0,.039.9c0,.272.078.584.078.856,0,.156.078.311,0,.467,0,.039.039.078.039.039.078,0,.078.039.078.078a.234.234,0,0,1,.039.156c0,.078.078.195-.039.272-.039.039,0,.078.039.078q.175,0,0,.117c-.039,0-.039.078.039.078s.078.039.039.078-.078.078.039.117c.039,0,0,.039,0,.039-.039.078,0,.117,0,.156a6.97,6.97,0,0,0,.467.934c.039.078.117.078.117.156,0,.039.039.039.078.039v-.078c0-.078,0-.117-.039-.156,0-.039-.039-.078.039-.117.039,0,.078.039.078.117,0,.039,0,.078.078.078.039,0,.039,0,.039.039.195.195.272.506.584.584.039,0,.039.039,0,.078-.078.078-.078.156.039.195a.143.143,0,0,1,.117.039,4.583,4.583,0,0,0,.973.156.354.354,0,0,0,.389-.311.136.136,0,0,0-.078.039c-.039-.039-.039-.117.039-.117a.857.857,0,0,1,.311-.039.691.691,0,0,0,.389-.156l.584-.506c.117-.117.272-.195.35-.35a4.054,4.054,0,0,1,.389-.7l.623-.778a7.088,7.088,0,0,0,.584-1.051l.35-.778c.117-.234.272-.467.389-.739a1.475,1.475,0,0,1,.234-.506c.039-.039.234-.039.117-.195l.039-.039.272-.195a2.362,2.362,0,0,0,.389-.272,3.05,3.05,0,0,1,.584-.389,4.209,4.209,0,0,0,.7-.428l.817-.506c.311-.195.545-.428.817-.623l.817-.739a.18.18,0,0,0,.117-.195l-.467.428c-.039.039-.078.078-.117.039" transform="translate(-18.088 -14.058)" fill="#13171d"/>
      <path id="Path_16260" data-name="Path 16260" d="M65.678,33.541c0,.078-.039.117-.195.156Zm-4.4-10.586c.039,0,.039-.078.039-.117.078.078.078.117.039.195,0,.039-.039.039-.078,0s-.039-.039,0-.078m-.856,8.29h-.039c-.039-.039-.039-.039-.039-.078l.156-.156c0,.117-.078.156-.078.234m-.739.7a.3.3,0,0,1-.195.078c0-.039,0-.078.078-.078.039,0,.039,0,.039-.039s0-.078.039-.078.039.039.078.039a.136.136,0,0,1-.039.078M58.634,33c.078,0,.078.078.078.117a.084.084,0,0,1-.078.078c-.078,0,0-.117-.078-.117A.084.084,0,0,1,58.634,33m5.215,1.712c-.039-.039,0-.078.039-.078.117.039.156.078.156.195,0,.078-.039.078-.078.039-.117,0-.117-.078-.117-.156m-3.775-3.075h-.039c-.039,0-.117,0-.078.078.039.039-.039.039-.078.039-.039-.039-.078-.039-.039-.117l.195-.195a.3.3,0,0,1,.156.078c-.039.039-.195-.039-.117.117m6.071,1.557c-.039,0-.039,0-.078-.039a.038.038,0,0,1,.039-.039l.311-.272c.039-.039.078-.078.156-.039-.117.117-.272.156-.272.311,0,.039-.117.078-.156.078m-1.673.623c.117-.078.156-.195.311-.195a1.106,1.106,0,0,0,.467-.156v.078c0,.039-.117.078-.078.117s.078-.039.156,0c-.195.117-.35.311-.584.195a.351.351,0,0,0-.195.039h-.078Zm-5.682.623c-.078-.117-.195-.156-.234-.272-.039-.078-.078-.117.039-.156.039-.039.039-.039.039-.078,0-.078.039-.039.078-.078.156-.078.195,0,.195.117a.038.038,0,0,0,.039.039c.156.039.156.156.195.272-.156-.078-.272.039-.35.156m7.2.467c-.039.078-.117.078-.156.117a1.569,1.569,0,0,1-.7.545c-.078,0-.195,0-.234.078s-.117.078-.195.078h-.039c-.078.195-.311.117-.467.195a.038.038,0,0,1-.039.039c-.078-.039-.234-.311-.195-.389.039-.117.078-.117.156-.039a.183.183,0,0,0,.234.039c.039,0,.078,0,.078.039.039.039.078.078.117.039s.117-.078.078-.195c0-.117.156-.156.234-.156a2.21,2.21,0,0,0,1.012-.467c.039-.039.078-.078.117-.039Zm-2.958-.078c-.039-.078,0-.117-.078-.156h-.039a3.406,3.406,0,0,0,.389.856c0,.039.039.156.117.117.078,0,0-.078,0-.156v-.039c.039-.039.078,0,.078.039s.039.078.078.117c.078.156.311.234.311.467a.121.121,0,0,1,.078.039.755.755,0,0,0,.584.078.2.2,0,0,0,.156-.078c0-.039.039-.078,0-.078-.117,0-.039-.078-.078-.156a.543.543,0,0,0,.428,0l.506-.428.195-.156a4.248,4.248,0,0,0,.506-.662c.078-.039.039-.078,0-.156.117.039.156,0,.195-.078l.078-.078c.584-.7,1.129-1.44,1.673-2.218l.817-1.284c.272-.428.545-.856.778-1.284l.778-1.518a4.051,4.051,0,0,0,.234-.623c.039-.078.078-.195,0-.195-.078-.078-.039.078-.117.117h-.039a.77.77,0,0,1,.078-.428c-.117,0-.156.117-.234.195l-.817,1.245a12.66,12.66,0,0,1-1.206,1.635,20.8,20.8,0,0,1-1.751,1.946A5.075,5.075,0,0,1,65.405,33a1.034,1.034,0,0,1-.739.156c-.195-.039-.234-.117-.272-.311v-.272a4.25,4.25,0,0,1,.156-1.557c.078-.389.156-.817.272-1.206l.35-1.245.389-1.168.428-.973a8.827,8.827,0,0,1,.739-1.323,8.567,8.567,0,0,1,.584-1.012.824.824,0,0,0,.117-.272.282.282,0,0,1,.078-.311.143.143,0,0,0,.039-.117.241.241,0,0,1,.078-.272c.039.039,0,.117.117.117-.078-.078,0-.156,0-.272-.039-.156-.078-.311.078-.428V22.45a.121.121,0,0,0-.078-.039c-.078.078-.234.039-.272.156,0,.039,0,.039-.039.039-.078-.039-.156-.117-.234,0a.118.118,0,0,1-.156,0c-.039-.039.039-.039.039-.078V22.45c0-.117.117-.156.117-.272.156-.078.195-.272.35-.311.078,0,.078-.078.039-.117,0-.078-.039-.039-.078-.039h-.156a.7.7,0,0,0-.467.117l-.467.428c-.234.272-.467.623-.7.934-.078.078-.117.195-.195.234-.039-.039,0-.078,0-.117s0-.117-.078-.078a.331.331,0,0,0-.195.117,3.244,3.244,0,0,0-.311.467c-.078.117-.078.234-.195.311a.143.143,0,0,0-.039.117c-.039.078-.078.195-.117.195-.117,0-.039.039-.078.078,0,.078,0,.234-.117.234-.078-.039-.039,0-.039.039.039.039,0,.078,0,.117-.117.117-.117.311-.35.389,0,.117-.078.195-.117.311a6.013,6.013,0,0,1-.467.856q-.934,1.4-1.985,2.685c-.428.467-.817.973-1.284,1.4-.195.156-.311.467-.7.428,0,0-.039.039-.078-.039,0-.039-.078-.039-.078-.117h.039c.117,0,.039-.078,0-.117a.413.413,0,0,1-.039-.311,6.013,6.013,0,0,1,.234-.9c.156-.545.311-1.09.506-1.635a14.231,14.231,0,0,1,.7-1.79l.934-1.907c.039-.117.156-.234,0-.35a.136.136,0,0,1,.078.039c.078,0,.117,0,.078-.039,0-.117.195-.234,0-.35a.038.038,0,0,1,.039-.039,1.077,1.077,0,0,0,.039-.35c0-.039.078-.117.039-.156-.039-.078-.117,0-.156,0h-.039a.073.073,0,0,0-.117,0c-.039.039-.117.117-.195.039-.039-.078-.039-.35.078-.428a1.321,1.321,0,0,0,.234-.234c.039-.078.039-.117-.039-.117-.039,0-.117-.039-.156-.039a.038.038,0,0,0-.039-.039c-.039.117-.156.078-.234.117a.8.8,0,0,0-.35.195l-.584.778a10.8,10.8,0,0,0-.856,1.44l-.311.623a1.955,1.955,0,0,1-.195.506l-.428,1.051c-.117.234-.156.506-.272.739-.039.078,0,.117-.078.156-.039.039,0,.117,0,.156a1.439,1.439,0,0,1-.195.428,4.105,4.105,0,0,0-.195.739,5.005,5.005,0,0,0-.156.739,9.638,9.638,0,0,0-.117,1.051c0,.117.039.234.039.389a4.71,4.71,0,0,0-.039.739c.039.389.078.739.078,1.09,0,.039-.117.272.117.195v.078a.292.292,0,0,1,.039.195.967.967,0,0,0,.039.311l.156.389c0,.039,0,.039.039.039a.038.038,0,0,0,.039-.039c0-.039-.039-.117-.039-.156-.039-.039,0-.078.039-.078.078-.039.078,0,.117.039,0,.078,0,.078.078.078a.136.136,0,0,1,.039.078c0,.156.234.195.156.389a.958.958,0,0,0,.428.156c.195-.039.35-.078.428-.272a.038.038,0,0,0,.039-.039c.234-.039.311-.272.467-.35l.234-.311c0-.039.078-.078,0-.117-.039,0-.078.039-.117.039a.389.389,0,0,1-.156.195c-.117.156-.272.117-.428.195-.039,0-.078,0-.078-.078,0-.039-.039-.078-.039-.117,0-.078-.039-.117.039-.156.039-.039.078,0,.117.039h.039c.039-.039-.039-.039,0-.117a.332.332,0,0,0,.272,0l.234-.117c.039-.039.156-.156.234-.039a.038.038,0,0,0,.039-.039c.039,0,0-.039,0-.039-.039,0-.039-.039-.039-.078h.039c.117.078.156,0,.195-.078.35-.428.662-.9.973-1.362l.9-1.362.545-.934c.039.039.078.078.039.117-.039.117-.039.117.078.156.078,0,.078.039.039.117a1.136,1.136,0,0,0-.078.35c0,.039.039.078.039.156a4.242,4.242,0,0,0-.117,1.012,9.464,9.464,0,0,0,0,1.051,13.53,13.53,0,0,0,.156,2.14c.078-.078-.039-.195.039-.234a.64.64,0,0,1,.039.389" transform="translate(-35.588 -13.421)" fill="#13171d"/>
      <path id="Path_16261" data-name="Path 16261" d="M91.441,13.636a.038.038,0,0,1,.039-.039v.039c0,.039,0,.039-.039,0m4.982-.934v.039c-.039,0-.039,0-.039-.039l.039-.039s.039.039,0,.039m-4.4.35c.039-.039.039,0,.039,0,0,.039,0,.039-.039.039,0,.039-.039,0-.039,0a.038.038,0,0,1,.039-.039m.467-.428c0,.039,0,.117-.078.117-.039-.078.039-.078.078-.117m.973-.778c.039.117-.039.117-.078.117,0-.039.039-.078.078-.117m4.281,7.589c0-.039.039-.039.078-.039v.039a.084.084,0,0,1-.078.078c-.039,0-.039-.039,0-.078m-1.09,1.09c-.039.039-.078.117-.156.117,0-.078.078-.117.156-.117m-4.009-8.017c0,.117-.078.117-.156.078a.2.2,0,0,1,.156-.078m1.245-1.09a.292.292,0,0,0,.195.039c-.039-.117-.117-.078-.195-.039m-.545.545a.124.124,0,0,1-.117.117.038.038,0,0,1-.039-.039.155.155,0,0,1,.156-.078m-.039,1.6a.1.1,0,0,1-.117.117l-.039-.039c.039-.078.078-.078.156-.078m-.117.739a.281.281,0,0,1-.233.156c0-.117.117-.117.233-.156m3.7,6.071a.814.814,0,0,1-.234.156c0-.117.039-.195.234-.156M94.243,22a.333.333,0,0,1-.35-.117.359.359,0,0,1,.35.117M97.2,19.94c-.039.234-.078.272-.311.311.078-.156.195-.195.311-.311M94.593,22c.195-.117.272-.117.389.078-.195.039-.195.039-.389-.078m-3.308-8.328a.173.173,0,0,1-.234.078V13.48c.117.078.272.117.234.195m2.608-2.3v.039a.818.818,0,0,1,.428-.272c-.039.156,0,.35-.234.311-.117.156-.272.195-.428.35-.039-.234.117-.311.234-.428m1.168,2.14a5.757,5.757,0,0,1-.817.506c-.234.195-.584.156-.778.389-.039-.195-.039-.195.117-.272l1.245-.623c.078-.039.156-.117.233,0m-.467,7.433c0-.078-.117-.078-.117-.195a2.946,2.946,0,0,1,.584-.039,1.142,1.142,0,0,0,.623-.156c.156-.039.272-.078.35.078.039.039.078,0,.117.039a3.366,3.366,0,0,0-.389.272.453.453,0,0,1-.389.078,1.513,1.513,0,0,0-.584.078c-.156,0-.272,0-.35-.078,0-.117.117-.039.156-.078m-.117-9.963c.117-.078.272-.117.272-.272,0-.039.078-.078.117-.078a6.851,6.851,0,0,1,2.1-.778c.117,0,.234-.039.311,0,.078,0,.156.039.156.117,0,.117-.078.117-.156.117a5.675,5.675,0,0,0-1.168.272h-.039a4.962,4.962,0,0,1-1.051.428c-.039.039-.117.039-.117.117,0,.117-.078.117-.156.078H94.71c-.117-.039.039.234-.156.117-.078-.078-.156.039-.234.039.039-.078.117-.117.156-.156m2.218.467a8.537,8.537,0,0,0-2.1,1.168,9.619,9.619,0,0,0-1.051.817c-.078.039-.117.117-.234.117.039-.234.234-.35.389-.467a10.185,10.185,0,0,1,2.14-1.518,3.184,3.184,0,0,1,.934-.389.3.3,0,0,1,.311.039,2.061,2.061,0,0,1-.389.234m-4.476,4.281.156-.078a15.769,15.769,0,0,0,3.58-1.673l.623-.428c.039-.078.117-.117.272-.156a4.177,4.177,0,0,1-.662.584,14.766,14.766,0,0,1-3.658,1.868.553.553,0,0,1-.234.078c-.078,0-.117-.039-.117-.078-.039-.039,0-.078.039-.117m3.853-3.23a7.988,7.988,0,0,1-1.79.973l-.389.195-.156.078a.087.087,0,1,1-.078-.156,1.032,1.032,0,0,1,.195-.234,10.157,10.157,0,0,1,2.218-1.4,4.549,4.549,0,0,1,.778-.234,2.96,2.96,0,0,1-.778.778M86.5,24.027A.455.455,0,0,0,87,23.715c0-.078.039-.117.039-.195a1.694,1.694,0,0,1,.311-.584c.078-.039.117-.117.195-.078s.078.117.078.234a.488.488,0,0,0-.039.35c.039,0,.039-.039.039-.078a8.071,8.071,0,0,0,.389-1.284l.117-.623c.156-.389.272-.817.428-1.245.156-.389.234-.817.428-1.206l.7-1.206a13.455,13.455,0,0,1,.856-1.206c.195-.195.389-.156.467.078l.156.545.584,2.569A9.032,9.032,0,0,0,92.608,22a.6.6,0,0,0,.195.272c.039-.117-.039-.195-.039-.311l.117.117a3.039,3.039,0,0,0,.934,1.051l.078.078c0,.156.156.195.272.234a4.072,4.072,0,0,0,.662.156.855.855,0,0,0,.545-.039,6.654,6.654,0,0,0,.9-.506,3.229,3.229,0,0,0,.662-.584.56.56,0,0,0,.234-.389l-.117.078a2.188,2.188,0,0,1-1.051.7l-.389.156a3.367,3.367,0,0,1-.662.272c-.156.039-.389.078-.467-.039a.742.742,0,0,0-.389-.195c-.117-.078-.234-.117-.311-.311l.662.117c.234.078.467.195.623-.117a.136.136,0,0,1,.078-.039,2.915,2.915,0,0,0,.623-.156A3.922,3.922,0,0,0,97.006,22c.078-.039.117-.117.234-.117.156.039.234-.078.311-.156l.506-.662a11.578,11.578,0,0,0,1.323-2.063,13.659,13.659,0,0,0,1.168-2.685.982.982,0,0,0,.039-.662l-.117-.389a.263.263,0,0,0-.234.156l-.233.35a10.629,10.629,0,0,1-2.413,3,7.885,7.885,0,0,1-1.712,1.284,3.143,3.143,0,0,1-1.206.195c-.078,0-.117-.078-.156-.078-.117-.078-.039.078-.117.117H94.36a2.327,2.327,0,0,1-.623-.311,3.526,3.526,0,0,1-.428-.623c-.117-.35-.311-.7-.428-1.051L92.3,16.554c-.117-.272-.078-.389.234-.467a13.561,13.561,0,0,0,2.024-.934A8.039,8.039,0,0,0,97.4,12.9,5.209,5.209,0,0,0,97.9,12a1.323,1.323,0,0,0,.272-.584,1.633,1.633,0,0,0-.078-1.051c-.078-.156-.117-.272-.311-.272-.117-.039-.234-.078-.234-.234-.078-.234-.117-.272-.311-.272h-.311a7.657,7.657,0,0,0-2.53.934,16.264,16.264,0,0,0-2.919,2.257l-.389.389c-.039-.117.039-.195.078-.311l.311-.9c.9-2.53,2.763-5.293,3.464-7.784a2.474,2.474,0,0,0,.234-.7,4.333,4.333,0,0,1,.078-.662c.039-.117-.506.117-.662.117a3.75,3.75,0,0,1,0-.662c0-.078-1.168.195-1.206.156-.117-.078-.117-.156.039-.195a.214.214,0,0,0,.117-.195.189.189,0,0,0-.234-.117c-.117.039-.272.039-.35.195-.156.234-.35.467-.506.739l-.623,1.4c-.428.934-.778,1.907-1.168,2.88-.506,1.323-1.051,2.608-1.557,3.892-.545,1.518-1.09,3-1.673,4.514-.195.545-.428,1.129-.584,1.751-.233.739-.389,1.518-.623,2.257a2.765,2.765,0,0,0-.156.778,8.465,8.465,0,0,1-.039,1.012.645.645,0,0,0,0,.467,1.149,1.149,0,0,1,.078.506,5.481,5.481,0,0,0-.039.778c0,.117-.039.272.156.234.078,0,.078.078.117.117a.987.987,0,0,1,.078.467c0,.078,0,.117.078.117" transform="translate(-53.178 -1.182)" fill="#13171d"/>
      <path id="Path_16262" data-name="Path 16262" d="M126.144,33.062V33.1H126.1c0-.039,0-.039.039-.039m-.545,2.569h.039v.039c-.039,0-.039,0-.039-.039m-1.518-11.092a.038.038,0,0,1-.039-.039h.078Zm.584,9.885a.039.039,0,0,1,0-.078c.039,0,.039.039,0,.078m2.413-2.3c.039,0,.039,0,.078.039a.038.038,0,0,0-.039.039.038.038,0,0,1-.039-.039Zm-4.2,3.658-.039-.039a.143.143,0,0,1,.117-.039c-.039.039-.039.078-.078.078m4.748-4.164.078-.078a.038.038,0,0,1,.039.039c-.039.039-.039.039-.078.039Zm-.311.311c.039-.039.039,0,.039.039l-.039.039a.039.039,0,0,1,0-.078M124.7,34.307c0-.039,0-.078.078-.039,0,.078-.039.078-.078.039m2.024-1.79c-.039.117-.039.117-.195.078.078.039.117-.078.195-.078m-1.129.973.117-.117c.039.117-.039.156-.117.117m.117-.117a.2.2,0,0,1,.156-.078c0,.117-.078.117-.156.078m-4.476,1.6c.039.039.078.039.078.117a.038.038,0,0,1-.039.039c-.078-.039-.117-.078-.078-.117,0-.039,0-.039.039-.039m4.2-1.284c.039-.078.078-.156.156-.156,0,.117,0,.117-.156.156m1.012-.973c0-.039.039-.078.039-.117,0,.039.078.078.039.156-.039.039-.039.078-.078.078h-.039c-.039-.039,0-.078.039-.117M125.4,33.8c-.039.039-.078.078-.117.078-.039.039-.039,0-.078-.039,0-.039.039-.078.117-.078.039-.039.078,0,.078.039m-1.168.9c.078-.078.117-.195.272-.234-.039.195-.117.234-.272.234m-.9.389c-.117.234-.117.234-.35.272.078-.156.234-.156.35-.272M120.5,37.3c-.078,0-.195-.117-.156-.195,0-.039.039-.039.078-.039.117,0,.156.039.156.156a.084.084,0,0,1-.078.078m3.464-2.3a6.883,6.883,0,0,1-.856.623.2.2,0,0,1-.156.078.389.389,0,0,1,.156-.195c.272-.156.545-.389.817-.584,0-.039.039-.039.078-.039.039.078,0,.078-.039.117m-.234-12.415c-.156-.039-.195-.117-.039-.234a.038.038,0,0,0,.039-.039c0-.311.272-.311.467-.389.156-.078.272.039.311.195.039.195,0,.311-.156.35-.195,0-.35.156-.506.234l-.389.195a1.827,1.827,0,0,1-.35.234c.039-.195.117-.234.623-.545m-1.323,13.193a.87.87,0,0,1-.817.156.257.257,0,0,0-.233.039c-.117.078-.195,0-.195-.156v-.039c.234.078.234-.234.506-.195a1.435,1.435,0,0,0,.662-.195.232.232,0,0,1,.272,0c.039.078.078.039.156,0,.078,0,.156-.039.234-.039a1.049,1.049,0,0,1-.584.428m5.565-2.763a41.761,41.761,0,0,0,3.269-4.943,2.474,2.474,0,0,0,.234-.7c-.195,0-.234,0-.156-.156,0-.078.039-.117,0-.195-.117,0-.156.078-.234.156l-.856.934a33.133,33.133,0,0,1-4.047,4.047,24.311,24.311,0,0,1-2.841,2.1,4.685,4.685,0,0,1-1.168.584.967.967,0,0,1-.739.039c-.078,0-.117-.117-.195-.078-.234,0-.272-.156-.311-.35a2.393,2.393,0,0,1-.039-.545c-.039-.584.078-1.168.078-1.751.039-.428.078-.856.156-1.284a26.377,26.377,0,0,1,.973-3.425,4.636,4.636,0,0,1,.739-1.362l.545-.623c.078-.039.117-.117.156,0,.117.156.156.078.272,0,.039-.078.078-.078.117-.039a.143.143,0,0,1,.039.117c0,.078-.039.117-.039.156a.675.675,0,0,0-.117.545c0,.078-.039.156-.039.272a3.342,3.342,0,0,0-.117.662,17.852,17.852,0,0,0-.039,2.88,2.76,2.76,0,0,0,.234,1.012.37.37,0,0,0,.389.234q.175,0,.117-.117c-.078-.156,0-.272.039-.389.195.039.078.234.234.35,0-.35.039-.623.039-.9a3.907,3.907,0,0,1,.156-.934c.156-.545.311-1.129.506-1.673a14.232,14.232,0,0,1,.7-1.79,10.206,10.206,0,0,0,.817-1.751c.078-.156.234-.272.234-.467,0-.234.078-.428.078-.662,0-.078.078-.156-.039-.234a.975.975,0,0,0-.272.156c-.039,0-.078.078-.117.039-.117-.156-.234-.039-.35,0,0-.195.195-.272.234-.428a.807.807,0,0,1,.234-.389c.039-.078,0-.039-.039-.195s-.117-.117-.234-.078l-.156.117a1.584,1.584,0,0,0-.545.467c-.078.078-.156.078-.195,0l-.117-.156c-.156-.195-.156-.195-.389-.117-.039,0-.078.039-.117.039a.319.319,0,0,1-.389-.156c-.078-.117-.156-.234,0-.35.078-.078.117-.195,0-.234a.781.781,0,0,0-.662-.039,3.814,3.814,0,0,0-.856.506,10.533,10.533,0,0,0-1.829,2.335,8.952,8.952,0,0,0-.856,1.868c-.156.389-.272.778-.428,1.129s-.234.7-.35,1.012c-.117.389-.234.817-.311,1.206a18.844,18.844,0,0,0-.234,6.889c0,.078-.039.156.039.234a.49.49,0,0,1,.117.506,1.972,1.972,0,0,0,.078.506,2.607,2.607,0,0,0,.428.7c.039-.078-.039-.195.039-.272a.038.038,0,0,1,.039.039,7.1,7.1,0,0,1,.506.623c.078.078.234.117.195.272,0,.078.078.117.117.156a2.283,2.283,0,0,0,.9.156.447.447,0,0,0,.35-.234c.039-.039.078-.078.039-.078-.117-.078-.078-.117.039-.117a.956.956,0,0,0,.584-.195c.389-.272.7-.545,1.051-.817a7.206,7.206,0,0,0,1.09-1.09c.039-.039.117-.078.039-.156-.039.039-.117.039-.117.078l-.739.662a3.387,3.387,0,0,1-.817.662c-.428.234-.9.428-1.362.662-.234.117-.506.117-.739.234-.039,0-.078,0-.078-.039-.078-.156-.272-.234-.35-.389a.118.118,0,0,1,0-.156c.039-.039.078,0,.117,0,.234.156.467,0,.7.078.039.039.078,0,.117-.039a.331.331,0,0,1,.272-.272,4.111,4.111,0,0,1,.739-.234,3.374,3.374,0,0,0,1.051-.545,14.223,14.223,0,0,0,1.206-.934c.078-.078.156-.195.233-.156.156.078.195-.039.272-.078l.389-.428c.039-.039.078-.078.078-.117q1.168-1.226,2.218-2.569" transform="translate(-73.559 -13.214)" fill="#13171d"/>
      <path id="Path_16263" data-name="Path 16263" d="M151.117,14.322a.18.18,0,0,1,.117-.195.331.331,0,0,1-.117.195M148.9,25.141c0-.078-.039-.156-.039-.272.078.117.117.195.039.272m4.592-2.646h-.039c-.039.039,0,.117-.078.078-.039-.039,0-.078.039-.117s.039-.078.117-.078v.078c.039.039,0,.039-.039.039m-1.129.973c.039-.039.039-.039.039-.078s.039-.039.078-.039.039.039.078.078l-.078.117c-.039.039-.078,0-.117,0-.039-.039-.078-.078,0-.078m-.545.467a.661.661,0,0,0,.234-.234.143.143,0,0,1,.117-.039c.039,0,.078,0,.078.039,0,.078-.078.039-.078.078l-.389.272c0,.039-.039.039-.078.039,0-.117.078-.156.117-.156m-1.907,1.323c0-.078.078-.078.156-.078.117,0,.156.078.195.195.039.039,0,.117-.078.078-.078,0-.272-.117-.272-.195m3.425-2.569c0,.039-.039,0-.039,0a.038.038,0,0,0-.039.039v.039c-.078.039-.156.078-.156.156-.078-.039-.078,0-.078.078a.038.038,0,0,1-.039.039c-.039,0-.078-.078-.078,0-.039.039.039.039.039.078-.039.039-.039.039-.078,0-.078,0-.117-.039-.078.078.039.039,0,.039,0,.039-.078,0-.117,0-.156-.039a.121.121,0,0,1,.039-.078l.545-.467a.143.143,0,0,1,.117-.039Zm-2.491,1.284c.039,0,.039-.078.078-.117.078-.117.234-.078.35-.156.195-.078.195-.078.156.156v.078l.234-.117c-.078.117-.117.195-.234.117a.187.187,0,0,1-.272.156.32.32,0,0,0-.272-.039c-.039.039-.078.039-.078,0-.039-.039,0-.078.039-.078m1.712,1.6c-.078.078-.117.156-.234.195l-.117.117c-.039.117-.117.156-.195.234a1.256,1.256,0,0,1-.817.311.136.136,0,0,0,.039.078c.039.039.039.039.039.078h-.078c-.039-.039-.117-.078-.156-.039-.078.078-.156.117-.039.195,0,.039.039.078,0,.117a.136.136,0,0,1-.078-.039c-.078-.156-.195-.039-.272-.039s-.117.039-.195.078-.117,0-.156-.078a.389.389,0,0,0-.156-.195c-.078,0-.078-.078-.039-.156.039-.156.078-.195.234-.078.039.039.195.117.272,0,.039-.039.078,0,.078.039,0,.156.156.039.234.117a1.685,1.685,0,0,1,.039-.195c-.117-.195.039-.195.117-.272a.234.234,0,0,0,.156-.039v-.039c.078-.039.117.195.156.039.039-.117.156,0,.195-.039.117-.078.311-.039.428-.195a.3.3,0,0,1,.156-.078c.078-.039.117-.117.195-.195.078-.039.156-.039.234-.117.039-.039.078.078.117.117a.2.2,0,0,0-.156.078M160.263,14.4a2.521,2.521,0,0,0,.195-.817c-.078.117-.156,0-.195,0a1.2,1.2,0,0,1,.078-.311c-.117.078-.195.117-.234.234l-.623.856a44.04,44.04,0,0,1-6.188,7.317,13.943,13.943,0,0,1-1.129,1.012c-.35.234-.156.234-.584.234-1.673-.428,2.1-7.278,2.608-8.095a14.382,14.382,0,0,1,1.09-1.712l.7-1.012a8.234,8.234,0,0,0,.9-1.362c.039-.039.234-.117.039-.234,0,0,.039-.039,0-.039-.039-.078.039-.117.078-.195.039-.156.156-.272.156-.467.039-.078.117-.078.156-.117.078-.039-.039-.117,0-.195.078-.078.039-.156.039-.234a.494.494,0,0,1,.039-.234c.039-.039.078-.117.039-.156s-.078.039-.117.039h-.078c-.078,0-.117.039-.156.117,0,.039-.078.078-.078.078-.078,0-.078-.078-.078-.117-.039-.039.039-.039.039-.117-.078,0-.117.078-.156.078a.084.084,0,0,1,.078-.078l.234-.234c.039,0,.039-.039.039-.078h-.078c-.039,0-.039,0-.078-.039a2.14,2.14,0,0,0,.272-.35.351.351,0,0,0,.039-.195c0-.039-.078,0-.117-.039,0-.039-.078-.039-.039-.117.117-.117-.039-.078-.078-.078s-.117.039-.156.039a5.434,5.434,0,0,0-.662.35,7.754,7.754,0,0,1-.739.467c-.428.311-.817.545-1.206.856a10.965,10.965,0,0,1-1.129.934l-1.6,1.479a24.331,24.331,0,0,0-1.712,1.751c-.467.506-.934,1.051-1.362,1.6-1.284,1.284,1.362-3.7,1.712-4.4l.467-1.051a5.858,5.858,0,0,1,.428-.856c.195-.428.428-.817.623-1.206a11.86,11.86,0,0,1,.817-1.557l.934-1.751c.272-.506.545-.973.778-1.479l.195-.389c.078-.117,0-.272.117-.389V2.1c-.117-.039-.039-.078,0-.156.039-.117.156-.195.156-.311s-.039-.234.039-.311c.039-.039.039-.078,0-.078,0-.039,0-.039-.039-.039-.039.117-.234.039-.234.195-.078,0-.739-.039-.778-.156s-.117-.039-.156-.039-.117,0-.078-.039c.078-.156-.7-.545-.623-.7s.311-.234.311-.467c-.039,0-.078.117-.195.078a.355.355,0,0,0-.428.078,5.57,5.57,0,0,0-.934,1.206c-.389.623-.584,1.751-.973,2.374-.428.623-.428,1.323-.817,1.985l-.7,1.362a6.479,6.479,0,0,0-.467.9l-.234.428c-.078.156-.039.35-.117.545-.117.234-.195.467-.311.662s-.195.545-.272.7a1.236,1.236,0,0,0-.117.35c-.039.117-.156.234-.195.35-.039.272-.311.506-.389.739-.117.272,0,.428-.117.739l-.234.584a2.251,2.251,0,0,1-.195.545l-.428,1.284c-.039.117-.039.234-.156.311.039.117-.039.195-.039.311l-.156.428c-.039.117-.156.234-.117.389v.039c-.039.078-.117.156-.117.195.039.078-.039.156-.039.234a3.049,3.049,0,0,1-.195.545c0,.039.039.078,0,.156l-.117.428a3.1,3.1,0,0,0-.117.584,6.368,6.368,0,0,0-.078.856c0,.039-.039.156,0,.234a.342.342,0,0,1,.039.272c-.039.428.039.856,0,1.245,0,.039,0,.039.039.078.039,0,.078-.156.117-.039.078.117.195.234.156.389a.248.248,0,0,0,0,.234.1.1,0,0,1,.156-.039c.039,0,.078.039.117.039.117.039.195.039.234-.078a3.613,3.613,0,0,0,.195-.389c0-.078.039-.117.117-.156.039,0,.117,0,.078.039-.078.156.078.195.039.35l.156-.234c.039-.156.117-.311.156-.506a2.607,2.607,0,0,1,.272-.7l.934-1.479a14.076,14.076,0,0,1,.856-1.245l.7-.973.7-.9.778-.934c.117-.117.156-.272.35-.272,0,.039.039.078.078,0l.545-.584a2.883,2.883,0,0,0,.467-.506.054.054,0,0,1,.078,0v.078l-.039.039c-.078.156-.272.272-.195.506.039.039,0,.039-.039.078-1.635,3.23-3.619,7.2-3.269,10.664a1.894,1.894,0,0,0,.039.467l.156.584a4.034,4.034,0,0,0,.156.389l.234.389a.038.038,0,0,0,.039.039c.078,0,.039-.039.039-.078a.231.231,0,0,1,.039-.272c-.039.195.195.195.234.35.078,0,.078.078.117.156a.259.259,0,0,0,.156.195c.078,0,.117.078.039.156,0,.039-.039.078.039.078a1.129,1.129,0,0,0,.7.195c.311-.039.234-.039.195-.311.039,0,.117.039.117-.039.039-.078.078-.078.156-.039a.323.323,0,0,0,.311-.117l.428-.35c.233-.195.506-.35.623-.623.039-.078.195-.117.156-.272.117,0,.156-.117.234-.195l.35-.467c.234-.272.467-.545.662-.817,1.946-2.8,3.853-4.826,5.371-7.823a15.637,15.637,0,0,0,.934-1.79" transform="translate(-89.621 0)" fill="#13171d"/>
      <path id="Path_16264" data-name="Path 16264" d="M185.008,12.458h-.039c0-.039,0-.039.039-.039ZM181.544,25.69l.039.039a.038.038,0,0,1-.039.039h-.039c0-.039,0-.078.039-.078m1.206-.545a.145.145,0,0,1-.156.117c.039-.039.039-.117.156-.117m3-13.31c-.039,0-.078,0-.078-.039-.039-.039,0-.078.039-.078a.084.084,0,0,1,.078.078c.039.039,0,.039-.039.039M183.1,24.717c.078.117,0,.117-.078.195a.229.229,0,0,1,.078-.195m-.817.817c.039-.039.078-.078.039-.156.078.117.078.195-.039.272a.073.073,0,0,1,0-.117m.272-.272c0,.195,0,.195-.234.117.117.039.156-.078.234-.117M185.9,9.305V9.227c.078-.039.117,0,.195.078-.078,0-.117.078-.195,0m-3.658,16.346c0,.039-.039.078-.078.117a.2.2,0,0,1-.156.078c.039-.156.039-.156.234-.195m-1.557,1.362c.039-.039.078-.078.117-.078.078,0,.078.078.078.117a.084.084,0,0,1-.078.078.1.1,0,0,1-.117-.117m.467.9c.078.078.156.117.156.272-.195.039-.195.039-.195.311l-.272-.272a.252.252,0,0,1-.039-.35c.078-.078.195-.078.35.039m5.176-19.537c0,.156-.117.117-.234.117a.7.7,0,0,0-.35.156c-.039,0-.117.039-.156.039A.3.3,0,0,1,185.4,8.6c-.039-.078.039-.117.078-.156a.038.038,0,0,1,.039-.039c.039-.039.078-.078.078-.117-.039-.039-.117,0-.156-.039.156-.195.428-.234.623-.35a.206.206,0,0,1,.272.156c.078.078.039.195,0,.311m1.518,1.012a1.419,1.419,0,0,1-.078-.584c-.156.039-.233,0-.195-.117a.188.188,0,0,0-.039-.272c-.078-.078-.156-.156-.272-.117a1.151,1.151,0,0,1-.389-.078c-.311-.117-.389-.234-.272-.506.039-.078.039-.117-.039-.195a.589.589,0,0,0-.662.039A4.959,4.959,0,0,0,184.93,8.6l-.156.234a.988.988,0,0,0-.311.389c-.078.117-.117.311-.311.311-.039,0-.078.039-.078.117a1.2,1.2,0,0,1-.039.739v.039a2.519,2.519,0,0,1,.039.934.987.987,0,0,0,.078.467.82.82,0,0,1,.117.662c.039.039.117-.039.156.039l.584.7c.039.078.078.156.156.156a2.273,2.273,0,0,0,.7.156c.117,0,.234,0,.272-.078a5.34,5.34,0,0,0,.7-.623c.039-.039.156-.078.156-.234a1.982,1.982,0,0,0-.662.272,1.327,1.327,0,0,1-.739.272c-.078,0-.156-.039-.234.039-.039.039-.117,0-.117-.078.039-.078-.039-.078-.078-.117a.388.388,0,0,1-.195-.156.118.118,0,0,1,0-.156.073.073,0,0,1,.117,0,1.373,1.373,0,0,0,.545.117.277.277,0,0,0,.234-.117.5.5,0,0,1,.428-.195,1.972,1.972,0,0,0,.506-.078,1.747,1.747,0,0,0,.506-.428.336.336,0,0,0,.117-.234v-.311c0-.078,0-.117.117-.156.311-.078.35-.117.35-.467a.234.234,0,0,1-.039-.156.446.446,0,0,1,.039-.389,1.191,1.191,0,0,0-.039-.9m-3.814,6.811c.078,0,.078.039.078.078.117-.078.195-.117.117-.272-.039-.039-.039-.078,0-.156l.117-.623c0-.039.039-.117-.039-.156-.195.156-.389.272-.623.078a1.846,1.846,0,0,1,.428-.817c-.156,0-.156.156-.272.156,0-.117.117-.195.078-.311-.078,0-.117,0-.156.039a1.3,1.3,0,0,0-.506.428l-.9,1.168a9.052,9.052,0,0,0-1.245,2.14l-.7,1.79-.467,1.245a15.038,15.038,0,0,0-.389,1.907,12.018,12.018,0,0,0-.039,1.673,17.638,17.638,0,0,0,.117,2.024,1.513,1.513,0,0,0,.078.584,1.482,1.482,0,0,1,.117.389,1.242,1.242,0,0,0,.35.623c.078-.117-.078-.195.039-.311.078.234.35.35.35.584.039.039.039.078.078.078a.548.548,0,0,0,.739-.078l.156-.156a2.68,2.68,0,0,0,.506-.428.155.155,0,0,0,.039-.195c-.156.156-.272.272-.467.272-.078.039-.156,0-.195-.117s.039-.195.156-.234a1.049,1.049,0,0,0,.584-.195c.039,0,.078-.039.117,0,.078.117.117,0,.156-.039l.234-.311,1.284-1.6c.856-1.129,1.635-2.3,2.374-3.464.545-.9,1.129-1.79,1.712-2.685a2.683,2.683,0,0,0,.272-.584c.039-.078.039-.156-.078-.195-.078-.039-.078-.078-.039-.156,0-.078.078-.117,0-.156a.621.621,0,0,0-.35.272c-.428.428-.778.934-1.168,1.4-.778.973-1.518,1.985-2.374,2.88a22.951,22.951,0,0,1-1.946,1.946,3.05,3.05,0,0,1-.584.389c-.195.078-.272.039-.35-.156a1.136,1.136,0,0,1-.078-.35,3.594,3.594,0,0,1,.117-1.129c.156-.662.311-1.323.506-1.946a24.109,24.109,0,0,1,1.362-3.269l.778-1.79c0-.078.039-.117,0-.195-.039,0-.078.039-.078-.039Z" transform="translate(-111.018 -4.596)" fill="#13171d"/>
      <path id="Path_16265" data-name="Path 16265" d="M203.664,33.062V33.1h-.039c0-.039,0-.039.039-.039m-.545,2.569h.039v.039c-.039,0-.039,0-.039-.039M201.6,24.539a.038.038,0,0,1-.039-.039h.078Zm.584,9.885a.039.039,0,0,1,0-.078c.039,0,.039.039,0,.078m2.413-2.3c.039,0,.039,0,.078.039a.038.038,0,0,0-.039.039.038.038,0,0,1-.039-.039Zm-4.2,3.658-.039-.039a.143.143,0,0,1,.117-.039c-.039.039-.039.078-.078.078m4.748-4.164.078-.078a.038.038,0,0,1,.039.039c-.039.039-.039.039-.078.039Zm-.311.311c.039-.039.039,0,.039.039l-.039.039a.039.039,0,0,1,0-.078m-2.608,2.374c0-.039,0-.078.078-.039,0,.078-.039.078-.078.039m2.024-1.79c-.039.117-.039.117-.195.078.078.039.117-.078.195-.078m-1.129.973.117-.117c.039.117-.039.156-.117.117m.117-.117a.2.2,0,0,1,.156-.078c0,.117-.078.117-.156.078m-4.476,1.6c.039.039.078.039.078.117a.038.038,0,0,1-.039.039c-.078-.039-.117-.078-.078-.117,0-.039,0-.039.039-.039m4.2-1.284c.039-.078.078-.156.156-.156,0,.117,0,.117-.156.156m1.012-.973c0-.039.039-.078.039-.117,0,.039.078.078.039.156-.039.039-.039.078-.078.078h-.039c-.039-.039,0-.078.039-.117m-1.051,1.09c-.039.039-.078.078-.117.078-.039.039-.039,0-.078-.039,0-.039.039-.078.117-.078.039-.039.078,0,.078.039m-1.168.9c.078-.078.117-.195.272-.234-.039.195-.117.234-.272.234m-.9.389c-.117.234-.117.234-.35.272.078-.156.234-.156.35-.272M198.021,37.3c-.078,0-.195-.117-.156-.195,0-.039.039-.039.078-.039.117,0,.156.039.156.156a.084.084,0,0,1-.078.078m3.464-2.3a6.882,6.882,0,0,1-.856.623.2.2,0,0,1-.156.078.389.389,0,0,1,.156-.195c.272-.156.545-.389.817-.584,0-.039.039-.039.078-.039.039.078,0,.078-.039.117m-.234-12.415c-.156-.039-.195-.117-.039-.234a.038.038,0,0,0,.039-.039c0-.311.272-.311.467-.389.156-.078.272.039.311.195.039.195,0,.311-.156.35-.195,0-.35.156-.506.234l-.389.195a1.827,1.827,0,0,1-.35.234c.039-.195.117-.234.623-.545m-1.323,13.193a.87.87,0,0,1-.817.156.257.257,0,0,0-.234.039c-.117.078-.195,0-.195-.156v-.039c.234.078.234-.234.506-.195a1.434,1.434,0,0,0,.662-.195.232.232,0,0,1,.272,0c.039.078.078.039.156,0,.078,0,.156-.039.234-.039a1.05,1.05,0,0,1-.584.428m5.565-2.763a41.759,41.759,0,0,0,3.269-4.943,2.473,2.473,0,0,0,.234-.7c-.195,0-.234,0-.156-.156,0-.078.039-.117,0-.195-.117,0-.156.078-.234.156l-.856.934a33.135,33.135,0,0,1-4.047,4.047,24.312,24.312,0,0,1-2.841,2.1,4.685,4.685,0,0,1-1.168.584.967.967,0,0,1-.739.039c-.078,0-.117-.117-.195-.078-.234,0-.272-.156-.311-.35a2.393,2.393,0,0,1-.039-.545c-.039-.584.078-1.168.078-1.751.039-.428.078-.856.156-1.284a26.378,26.378,0,0,1,.973-3.425,4.636,4.636,0,0,1,.739-1.362l.545-.623c.078-.039.117-.117.156,0,.117.156.156.078.272,0,.039-.078.078-.078.117-.039a.143.143,0,0,1,.039.117c0,.078-.039.117-.039.156a.675.675,0,0,0-.117.545c0,.078-.039.156-.039.272a3.342,3.342,0,0,0-.117.662,17.85,17.85,0,0,0-.039,2.88,2.76,2.76,0,0,0,.234,1.012.37.37,0,0,0,.389.234q.175,0,.117-.117c-.078-.156,0-.272.039-.389.195.039.078.234.234.35,0-.35.039-.623.039-.9a3.906,3.906,0,0,1,.156-.934c.156-.545.311-1.129.506-1.673a14.23,14.23,0,0,1,.7-1.79,10.2,10.2,0,0,0,.817-1.751c.078-.156.234-.272.234-.467,0-.234.078-.428.078-.662,0-.078.078-.156-.039-.234a.976.976,0,0,0-.272.156c-.039,0-.078.078-.117.039-.117-.156-.234-.039-.35,0,0-.195.195-.272.234-.428a.807.807,0,0,1,.233-.389c.039-.078,0-.039-.039-.195s-.117-.117-.234-.078l-.156.117a1.585,1.585,0,0,0-.545.467c-.078.078-.156.078-.195,0l-.117-.156c-.156-.195-.156-.195-.389-.117-.039,0-.078.039-.117.039a.319.319,0,0,1-.389-.156c-.078-.117-.156-.234,0-.35.078-.078.117-.195,0-.234a.781.781,0,0,0-.662-.039,3.815,3.815,0,0,0-.856.506,10.534,10.534,0,0,0-1.829,2.335,8.953,8.953,0,0,0-.856,1.868c-.156.389-.272.778-.428,1.129s-.234.7-.35,1.012c-.117.389-.234.817-.311,1.206a18.844,18.844,0,0,0-.234,6.889c0,.078-.039.156.039.234a.49.49,0,0,1,.117.506,1.971,1.971,0,0,0,.078.506,2.607,2.607,0,0,0,.428.7c.039-.078-.039-.195.039-.272a.038.038,0,0,1,.039.039,7.107,7.107,0,0,1,.506.623c.078.078.234.117.195.272,0,.078.078.117.117.156a2.284,2.284,0,0,0,.9.156.447.447,0,0,0,.35-.234c.039-.039.078-.078.039-.078-.117-.078-.078-.117.039-.117a.956.956,0,0,0,.584-.195c.389-.272.7-.545,1.051-.817a7.207,7.207,0,0,0,1.09-1.09c.039-.039.117-.078.039-.156-.039.039-.117.039-.117.078l-.739.662a3.387,3.387,0,0,1-.817.662c-.428.234-.9.428-1.362.662-.233.117-.506.117-.739.234-.039,0-.078,0-.078-.039-.078-.156-.272-.234-.35-.389a.118.118,0,0,1,0-.156c.039-.039.078,0,.117,0,.234.156.467,0,.7.078.039.039.078,0,.117-.039a.331.331,0,0,1,.272-.272,4.111,4.111,0,0,1,.739-.234A3.374,3.374,0,0,0,201.1,37.3a14.222,14.222,0,0,0,1.206-.934c.078-.078.156-.195.234-.156.156.078.195-.039.272-.078l.389-.428c.039-.039.078-.078.078-.117q1.168-1.226,2.218-2.569" transform="translate(-121.502 -13.214)" fill="#13171d"/>
    </g>
  </g>
</svg>
