<svg xmlns="http://www.w3.org/2000/svg" width="25" height="25" viewBox="0 0 25 25">
  <g id="Group_12051" data-name="Group 12051" transform="translate(-297 161)">
    <g id="Group_12048" data-name="Group 12048" transform="translate(-84 -205)">
      <path id="e55ca7537f100a96c599fa93457892aa" d="M20.169,16.948,18.643,14a2.708,2.708,0,0,1-.305-1.22V9.322c0-2.542-2.339-4.678-5.288-4.881h0V2.915a.915.915,0,1,0-1.83,0V4.339h0c-2.949.2-5.288,2.339-5.288,4.983v3.559a2.708,2.708,0,0,1-.305,1.22L4.1,16.847a.972.972,0,0,0,0,.915,1.037,1.037,0,0,0,.814.508H19.254a1.255,1.255,0,0,0,.814-.407A1.012,1.012,0,0,0,20.169,16.948ZM6.542,16.44l.814-1.424a4.629,4.629,0,0,0,.508-2.034V9.322c0-1.729,1.729-3.051,3.864-3.051h.915c2.135,0,3.864,1.424,3.864,3.051v3.559a4.629,4.629,0,0,0,.508,2.034l.814,1.627H6.542Zm8.542,2.644h-.915c-.2,0-.407.1-.407.305a1.739,1.739,0,0,1-1.627,1.322,1.558,1.558,0,0,1-1.627-1.322c0-.2-.2-.305-.407-.305H9.186c-.305,0-.508.2-.407.508a3.319,3.319,0,0,0,3.356,2.746,3.319,3.319,0,0,0,3.356-2.746A.465.465,0,0,0,15.084,19.084Z" transform="translate(379.016 44)" fill="#13171d"/>
      <circle id="Ellipse_657" data-name="Ellipse 657" cx="4" cy="4" r="4" transform="translate(396.244 58.338)" fill="#fe1a58"/>
    </g>
    <rect id="Rectangle_17748" data-name="Rectangle 17748" width="25" height="25" transform="translate(297 -161)" fill="#13171d" opacity="0"/>
  </g>
</svg>
