<svg xmlns="http://www.w3.org/2000/svg" width="25" height="25" viewBox="0 0 25 25">
  <g id="Group_12052" data-name="Group 12052" transform="translate(-333 155)">
    <path id="XMLID_1989_" d="M20.461,9.823H17.9a.527.527,0,0,1-.023-.093L13.486,4.359a.925.925,0,0,0-1.3-.14.982.982,0,0,0-.14,1.349l3.464,4.255H5.883L9.347,5.568a.932.932,0,0,0-.14-1.325.922.922,0,0,0-1.3.116L3.511,9.753a.234.234,0,0,1-.023.07H.93A.858.858,0,0,0,0,10.66v3.488a1.017,1.017,0,0,0,.93,1.023h.3l1.744,7.068a1.711,1.711,0,0,0,1.744,1.3H16.671a1.754,1.754,0,0,0,1.744-1.3l1.744-7.068h.3a1.017,1.017,0,0,0,.93-1.023V10.66a.858.858,0,0,0-.93-.837Zm-18.6,1.86H19.531v1.628H1.86Zm14.765,10H4.767l-1.628-6.51H18.252Z" transform="translate(335 -157.013)" fill="#13171d"/>
    <rect id="Rectangle_17749" data-name="Rectangle 17749" width="25" height="25" transform="translate(333 -155)" fill="#13171d" opacity="0"/>
  </g>
</svg>
