<svg xmlns="http://www.w3.org/2000/svg" width="25" height="25" viewBox="0 0 25 25">
  <g id="Group_12055" data-name="Group 12055" transform="translate(-193 225)">
    <path id="_4e7f5712f2b0cf7f6b4bc36e3f337a86" data-name="4e7f5712f2b0cf7f6b4bc36e3f337a86" d="M19.8,22.522H6.51a.831.831,0,0,1-.831-.831V12.967L4.148,13.6a.832.832,0,0,1-1.091-.463l-1.75-4.43a.828.828,0,0,1,.346-1.017L7.19,4.369a.831.831,0,1,1,.855,1.424L3.112,8.753,4.3,11.743l1.9-.785a.829.829,0,0,1,1.146.767v9.136H18.968V11.725a.829.829,0,0,1,1.147-.767l1.9.785,1.18-2.99L18.461,5.911H17.224A4.153,4.153,0,0,1,9,5.081a.831.831,0,1,1,1.661,0,2.492,2.492,0,0,0,4.983,0,.831.831,0,0,1,.831-.831h2.215a.828.828,0,0,1,.427.118l5.537,3.322A.829.829,0,0,1,25,8.707l-1.75,4.43a.829.829,0,0,1-1.089.463l-1.533-.632v8.724A.831.831,0,0,1,19.8,22.522Z" transform="translate(192.513 -225.56)" fill="#13171d"/>
    <rect id="Rectangle_17751" data-name="Rectangle 17751" width="25" height="25" transform="translate(193 -225)" fill="#13171d" opacity="0"/>
  </g>
</svg>
