<svg xmlns="http://www.w3.org/2000/svg" width="25" height="25" viewBox="0 0 25 25">
  <g id="Group_12054" data-name="Group 12054" transform="translate(-64 224)">
    <g id="Group_12053" data-name="Group 12053" transform="translate(34.935 -3294.444)">
      <path id="XMLID_100_" d="M20.9,11.626a1.021,1.021,0,0,1-.665-.261l-9.316-9.1-9.316,9.1a.969.969,0,0,1-1.355-.024A.969.969,0,0,1,.275,9.986L10.257.242a.962.962,0,0,1,1.331,0l9.982,9.744a.968.968,0,0,1,.024,1.355.992.992,0,0,1-.689.285Zm-2.091,9.269V11.6a.951.951,0,0,0-1.9,0v8.342H13.941V14.858a1.268,1.268,0,0,0-1.26-1.26H9.164a1.268,1.268,0,0,0-1.26,1.26v5.086H4.933V11.6a.951.951,0,0,0-1.9,0v9.292a.953.953,0,0,0,.951.951H8.855a.953.953,0,0,0,.951-.951V15.5h2.258v5.395a.953.953,0,0,0,.951.951h4.872a.933.933,0,0,0,.927-.951Z" transform="translate(31.078 3071.469)" fill="#13171d"/>
    </g>
    <rect id="Rectangle_17750" data-name="Rectangle 17750" width="25" height="25" transform="translate(64 -224)" fill="#13171d" opacity="0"/>
  </g>
</svg>
