<svg xmlns="http://www.w3.org/2000/svg" xmlns:xlink="http://www.w3.org/1999/xlink" width="210.006" height="139.308" viewBox="0 0 210.006 139.308">
  <defs>
    <clipPath id="clip-path">
      <rect id="Rectangle_17747" data-name="Rectangle 17747" width="116.532" height="74.937" fill="#fe1a58"/>
    </clipPath>
  </defs>
  <g id="Group_12057" data-name="Group 12057" transform="translate(-82 -341.532)">
    <path id="Path_16291" data-name="Path 16291" d="M3.809.051A6.972,6.972,0,0,1-.863-4.266,9.832,9.832,0,0,1-1.27-7.211,20.672,20.672,0,0,1-.33-12.9a39.215,39.215,0,0,1,5.053-10.74,35.306,35.306,0,0,1,9.166-9.648,9.415,9.415,0,0,1,4.443-1.676A2.909,2.909,0,0,1,20.9-33.389a6.694,6.694,0,0,0,.6.762,1.956,1.956,0,0,0,.571.482h.076a.409.409,0,0,0,.178-.051.993.993,0,0,0,.279-.317q.178-.267.482-.774,1.6-2.818,2.438-3.275a1.041,1.041,0,0,1,.457-.127.5.5,0,0,1,.229.051,1.892,1.892,0,0,1,.686.635,2.4,2.4,0,0,0,.33.317,2.228,2.228,0,0,0,.406.267,2.329,2.329,0,0,1,1.168,1.32,1.023,1.023,0,0,1,.076.406,3.666,3.666,0,0,1-.533,1.625,33.055,33.055,0,0,1-2.742,4.012,61.692,61.692,0,0,0-5.332,8.582q-.406.838-.66,1.257a2.253,2.253,0,0,1-.444.571.655.655,0,0,1-.419.152,1.282,1.282,0,0,1-.6-.216,2.628,2.628,0,0,1-.622-.5,1.674,1.674,0,0,1-.3-.673,3.159,3.159,0,0,1-.076-.622,3.272,3.272,0,0,1,.025-.406,22.941,22.941,0,0,1,1.371-3.91q.279-.609.508-1.244a9.307,9.307,0,0,0,.3-.965q.076-.3.2-.787T19.8-27.7q.1-.406.165-.762A3.336,3.336,0,0,0,20.033-29a.618.618,0,0,0-.089-.3.345.345,0,0,0-.267-.076H19.6a3.158,3.158,0,0,0-1.143.406,25.875,25.875,0,0,0-7.947,6.64A39.016,39.016,0,0,0,4.24-12.264,22.6,22.6,0,0,0,2.755-7.516a19.115,19.115,0,0,0-.267,2.564,4.506,4.506,0,0,0,.33,1.879q.279.559,1.371.559a6.594,6.594,0,0,0,1.066-.1A12.877,12.877,0,0,0,8.722-3.821a21.774,21.774,0,0,0,3.72-2.323,43.4,43.4,0,0,0,3.313-2.882q1.714-1.638,3.009-3.085.355-.432.647-.724a1.713,1.713,0,0,1,.368-.317.746.746,0,0,1,.178-.025.538.538,0,0,1,.482.229.942.942,0,0,1,.127.508,2.2,2.2,0,0,1-.025.3q-.254,1.244-4.926,5.891a54.976,54.976,0,0,1-4.088,3.821A13.884,13.884,0,0,1,8.582-.533,8.073,8.073,0,0,1,5.307.279,4.866,4.866,0,0,1,3.809.051ZM21.43-2.59a4.788,4.788,0,0,1-.609-.432,8.936,8.936,0,0,1-.736-.66,5.731,5.731,0,0,1-1.066-1.27,6.33,6.33,0,0,1-.609-1.6,6.343,6.343,0,0,1-.2-1.536v-.9a10.45,10.45,0,0,1,.152-1.9,19.91,19.91,0,0,1,1.092-3.288,19.534,19.534,0,0,1,1.676-3.161,10.169,10.169,0,0,1,1.308-1.612,5.656,5.656,0,0,1,1.308-1.028,3.1,3.1,0,0,1,1.244-.3,1.711,1.711,0,0,1,1.473.813q.127.178.3.432t.33.432a2.714,2.714,0,0,1,.571.889,2.1,2.1,0,0,1,.063.432,1.691,1.691,0,0,1-.178.711,1.3,1.3,0,0,0-.178.609.479.479,0,0,0,.025.152,2.613,2.613,0,0,0,.533.863,6.613,6.613,0,0,1,.9,1.384,4.248,4.248,0,0,1,.317,1.485,1.469,1.469,0,0,0,.178.774.409.409,0,0,0,.279.114,1.3,1.3,0,0,0,.406-.076,6.567,6.567,0,0,0,1.447-.584q.889-.457,1.8-1.041a6.924,6.924,0,0,1,.8-.5,1.529,1.529,0,0,1,.47-.19.416.416,0,0,1,.19.063.388.388,0,0,1,.165.165.437.437,0,0,1,.1.279,1.222,1.222,0,0,1-.381.711,15.87,15.87,0,0,1-2.158,1.828A11.382,11.382,0,0,1,29.4-8.785q-.229.1-.444.19t-.317.14a1.681,1.681,0,0,0-.3.419q-.2.343-.432.825a12.444,12.444,0,0,1-.914,1.676A8.495,8.495,0,0,1,25.924-4.24a5.241,5.241,0,0,1-3.453,1.854A2.78,2.78,0,0,1,21.43-2.59Zm5.408-8.836a3.618,3.618,0,0,0,.229-.914,6.986,6.986,0,0,0,.051-.736,2.219,2.219,0,0,0-.051-.482,2.212,2.212,0,0,0-.355-.863.89.89,0,0,0-.559-.406h-.076a.473.473,0,0,0-.3.1,1.5,1.5,0,0,0-.381.508,2.228,2.228,0,0,0-.152.508,5.74,5.74,0,0,0-.051.914q0,.482.013.724a.855.855,0,0,0,.076.355,1.124,1.124,0,0,0,.19.241,1.889,1.889,0,0,0,.482.33,1.02,1.02,0,0,0,.406.1.563.563,0,0,0,.178-.025.338.338,0,0,0,.152-.127A2.675,2.675,0,0,0,26.838-11.426ZM22.852-5.764a6.531,6.531,0,0,0,1.4-1.143q1.244-1.27,1.244-1.752a.283.283,0,0,0-.025-.127,3.041,3.041,0,0,0-.394-.444q-.317-.317-.711-.686t-.724-.622a1.245,1.245,0,0,0-.406-.254q-.229,0-.559.711a12.183,12.183,0,0,0-.609,1.65A11.914,11.914,0,0,0,21.7-6.906a6.4,6.4,0,0,0-.089.813.89.89,0,0,0,.076.432.437.437,0,0,0,.355.152A1.967,1.967,0,0,0,22.852-5.764Zm28.539,4.57A3.983,3.983,0,0,1,49.182-3.4a4.72,4.72,0,0,1-.127-1.143q0-3.377,3.834-10.182.432-.762.774-1.371t.444-.812a1.844,1.844,0,0,0,.178-.457q.025-.152.025-.178,0-.152-.076-.152-.2,0-.939.622t-1.663,1.536q-.927.914-1.765,1.879-.406.482-1.117,1.358t-1.371,1.739q-1.168,1.523-1.892,2.425t-1.13,1.346a3.185,3.185,0,0,1-.647.584.936.936,0,0,1-.47.14,1.766,1.766,0,0,1-.889-.343,2.652,2.652,0,0,1-.812-.774,2.687,2.687,0,0,1-.33-1.346,4.028,4.028,0,0,1,.051-.609,19.284,19.284,0,0,1,1.092-3.529,4.338,4.338,0,0,0,.432-1.244q0-.127-.076-.127a8.606,8.606,0,0,0-2.082,1.828q-1.143,1.168-1.98,2.12T36.613-7.617q-.559.711-1.016,1.244a3.127,3.127,0,0,1-.609.609,1.177,1.177,0,0,1-.533.127,1.646,1.646,0,0,1-1.016-.432,2.845,2.845,0,0,1-.99-1.777V-8.2a14.266,14.266,0,0,1,1.092-4.7,33.458,33.458,0,0,1,3.148-6.271q1.447-2.158,2.514-2.158h.152a2.439,2.439,0,0,1,.762.546,13.319,13.319,0,0,1,.965.99,2.114,2.114,0,0,1,.508.774,1.381,1.381,0,0,1,.051.381,2.7,2.7,0,0,1-.254,1.066,21.91,21.91,0,0,1-1.5,2.488,12.375,12.375,0,0,0-1.777,3.072.067.067,0,0,0,.076.076,8.224,8.224,0,0,0,.889-.8q.838-.8,2.031-1.993,1.473-1.422,2.336-2.26a16.624,16.624,0,0,1,1.346-1.206,2.064,2.064,0,0,1,.647-.394,1.782,1.782,0,0,1,.241-.025.711.711,0,0,1,.355.1,3.368,3.368,0,0,1,.787.686,2.622,2.622,0,0,1,.559.863,3.549,3.549,0,0,1,.1.863,5.26,5.26,0,0,1-.127,1.117,3.826,3.826,0,0,0-.127.813q0,.3.152.3a5.628,5.628,0,0,0,.736-.635q.686-.635,1.625-1.549,4.85-4.8,6.17-5.1a.89.89,0,0,1,.279-.051.9.9,0,0,1,.406.1,3.461,3.461,0,0,1,.787.762,3.014,3.014,0,0,1,.863,2.184,4.137,4.137,0,0,1-.025.457,21.375,21.375,0,0,1-1.752,5.1l-.99,2.323q-.406.952-.673,1.587t-.406,1a5.473,5.473,0,0,0-.178.521,1.067,1.067,0,0,0-.038.2v.051a.1.1,0,0,0,.1.051q.2,0,.889-.774t2.26-2.78l1.473-1.841q.559-.7.876-1.041a3,3,0,0,1,.5-.457.62.62,0,0,1,.33-.114q.559,0,.559.533a2.2,2.2,0,0,1-.025.3q-.127.279-1.257,2.019T57.37-7.224Q55.986-5.18,55.123-3.961A10.07,10.07,0,0,1,52.66-1.193a1.61,1.61,0,0,1-.66.178A1.416,1.416,0,0,1,51.391-1.193Zm9.217-2.615A3.592,3.592,0,0,1,58.4-7.389a3.484,3.484,0,0,1-.025-.432,9.447,9.447,0,0,1,.838-3.58,23.637,23.637,0,0,1,1.676-3.491,5.258,5.258,0,0,1,1.523-1.841,1.079,1.079,0,0,1,.508-.152.563.563,0,0,1,.178.025,2.433,2.433,0,0,1,.787.559q.279.254.5.419a.808.808,0,0,0,.267.165,1,1,0,0,1,.559.317,2.03,2.03,0,0,1,.508.647,1.574,1.574,0,0,1,.127.609v.1a2.081,2.081,0,0,1-.279.876q-.279.546-.889,1.511a33.729,33.729,0,0,0-1.8,3.237,6.634,6.634,0,0,0-.711,1.866V-6.5a.182.182,0,0,0,.178.1q.355,0,1.422-.914,1.371-1.193,4.139-4.164.939-.99,1.447-1.473a3.381,3.381,0,0,1,.686-.559.8.8,0,0,1,.3-.076.49.49,0,0,1,.254.076.541.541,0,0,1,.292.241,1.146,1.146,0,0,1,.063.444v.051a.885.885,0,0,1-.152.432,6.015,6.015,0,0,1-.609.889q-.457.584-1.371,1.676Q66.27-6.729,64.822-5.332a7.239,7.239,0,0,1-2.437,1.727,1.871,1.871,0,0,1-.686.152h-.127A2.62,2.62,0,0,1,60.607-3.809Zm4.951-15.742a2.2,2.2,0,0,1-1.143-1.955,4.348,4.348,0,0,1,.381-1.65q.635-1.5,1.4-1.5a1.29,1.29,0,0,1,.686.2,6.7,6.7,0,0,1,.965.813,5.927,5.927,0,0,1,.559.622,1.265,1.265,0,0,1,.229.47,2.027,2.027,0,0,1,.076.533,1.564,1.564,0,0,1-.152.66,4.965,4.965,0,0,1-1.193,1.4,2.716,2.716,0,0,1-.825.635,1.584,1.584,0,0,1-.292.051A1.2,1.2,0,0,1,65.559-19.551ZM79.447-2.615a3.733,3.733,0,0,1-1.866-1.257,3.942,3.942,0,0,1-.6-2.247q-.025-.254-.025-.508a13.964,13.964,0,0,1,1.549-5.561q.33-.736.482-1.13a1.859,1.859,0,0,0,.152-.546q0-.127-.1-.127-.2,0-1.066.787t-1.93,1.942q-1.066,1.155-1.98,2.323-.736.914-1.371,1.727-.254.3-.406.508Q71.4-5.586,70.713-5.586a.479.479,0,0,1-.152-.025,3.674,3.674,0,0,1-.787-.3,3.232,3.232,0,0,1-.686-.432A2.518,2.518,0,0,1,68.4-8.354a11.691,11.691,0,0,1,.482-2.945,27.877,27.877,0,0,1,1.93-4.951q1.777-3.631,2.742-3.859l.127-.025a.893.893,0,0,1,.432.127,1.091,1.091,0,0,1,.508.457,1.5,1.5,0,0,0,.406.47,1.857,1.857,0,0,0,.609.267,2.472,2.472,0,0,1,.724.457,2.108,2.108,0,0,1,.521.686,1.352,1.352,0,0,1,.152.609,2.118,2.118,0,0,1-.406,1.168,8.279,8.279,0,0,0-1.016,1.828q0,.127.051.127a.958.958,0,0,0,.2-.1q.127-.076.863-.673t1.7-1.435q.99-.863,1.714-1.46T81-18.281a1.127,1.127,0,0,1,.508-.127,1.011,1.011,0,0,1,.66.254,3.927,3.927,0,0,0,.355.3q.229.178.457.33a2.011,2.011,0,0,1,.686.838,1.977,1.977,0,0,1,.2.939,3.637,3.637,0,0,1-.076.711,21.867,21.867,0,0,1-1.117,3.3q-.508,1.346-.851,2.247t-.533,1.447q-.19.546-.254.787a1.579,1.579,0,0,0-.063.368v.051a.12.12,0,0,0,.127.1q.457-.076,3.885-4.139,1.193-1.422,1.815-2.12a7.388,7.388,0,0,1,.914-.914.889.889,0,0,1,.47-.216h.178a.66.66,0,0,1,.2.025.512.512,0,0,1,.229.2.6.6,0,0,1,.114.394,1.467,1.467,0,0,1-.241.6q-.229.381-.736,1.066-.736.99-2.006,2.806T83.764-5.865Q83.078-4.9,82.38-4.1A8.455,8.455,0,0,1,81.174-2.92a2.118,2.118,0,0,1-1.168.406A1.625,1.625,0,0,1,79.447-2.615Zm2.234,8.582a15,15,0,0,1,1.384-2.272,21.319,21.319,0,0,1,1.993-2.247,25.38,25.38,0,0,1,3.453-3.021Q90.365-2.92,94.58-5.535a1.6,1.6,0,0,0,.584-.444,1.806,1.806,0,0,0,.229-.876q.051-.635.1-2.006.051-1.244.051-1.9a5.455,5.455,0,0,0-.051-.914q-.051-.254-.127-.254a4.408,4.408,0,0,0-.647.571q-.6.571-1.435,1.435a21.291,21.291,0,0,1-4.367,3.682,1.606,1.606,0,0,1-.762.2,1.653,1.653,0,0,1-.99-.355A2.889,2.889,0,0,1,85.9-8.912a7.816,7.816,0,0,1,.889-3.225,20.425,20.425,0,0,1,3.009-4.507A8.771,8.771,0,0,1,93.082-19.2a3.454,3.454,0,0,1,.559-.127,4.176,4.176,0,0,1,.635-.051,2.672,2.672,0,0,1,2.209,1.066q.33.457.508.508a1.138,1.138,0,0,0,.3.051,1.5,1.5,0,0,0,.508-.1,1.779,1.779,0,0,1,.559-.1,1.427,1.427,0,0,1,.279.025,1.957,1.957,0,0,1,.787.533,1.94,1.94,0,0,1,.647.99q.038.381.038.482a3.646,3.646,0,0,1-.381,1.473,12.532,12.532,0,0,0-.673,2.387A12.133,12.133,0,0,0,98.846-10q0,.279.025.533a1.166,1.166,0,0,0,.152.584.293.293,0,0,0,.2.1.624.624,0,0,0,.229-.051,6.707,6.707,0,0,0,.939-.686q.686-.559,1.523-1.295t1.549-1.4q.559-.559.889-.851a3.493,3.493,0,0,1,.508-.394.625.625,0,0,1,.279-.1h.1q.406,0,.406.609,0,.787-2.031,2.945-.939,1.016-1.625,1.65t-1.752,1.473q-.482.406-.825.711a2.127,2.127,0,0,0-.394.406,4.289,4.289,0,0,0-.063.432Q98.922-5,98.9-4.6a21.475,21.475,0,0,1-2.006,7.922,25.916,25.916,0,0,1-3.466,5.129,23.871,23.871,0,0,1-4.38,4.037,9.1,9.1,0,0,1-4.8,1.879,3.5,3.5,0,0,1-.736-.076q-2.234-.406-2.6-1.841a9.572,9.572,0,0,1-.368-2.146A10.565,10.565,0,0,1,81.682,5.967Zm9.268-16.148q.229-.178.99-.889t1.612-1.511q.851-.8,1.308-1.257.508-.533.508-.711,0-.076-.1-.076h-.1a5.224,5.224,0,0,0-1.752,1.066,14.023,14.023,0,0,0-1.765,1.777,6.846,6.846,0,0,0-1.13,1.65.418.418,0,0,0-.025.127q0,.076.051.076A.973.973,0,0,0,90.949-10.182ZM87.141,10.182A21.88,21.88,0,0,0,90.9,5.789a29.938,29.938,0,0,0,1.676-2.78A30.634,30.634,0,0,0,93.92.025a8.912,8.912,0,0,0,.762-2.564q0-.33-.178-.355a3.675,3.675,0,0,0-.889.457q-.762.457-1.727,1.079T90.162-.2a24.577,24.577,0,0,0-3.707,3.225A15.389,15.389,0,0,0,83.51,7.033a9.326,9.326,0,0,0-1.143,3.707v.178q.076,1.27,1.143,1.27h.152Q84.881,12.086,87.141,10.182ZM118.955.508a4.078,4.078,0,0,1-1.1-.406A3.692,3.692,0,0,1,117-.584a4.274,4.274,0,0,1-1.092-1.955,5.565,5.565,0,0,1-.1-1.092,7.53,7.53,0,0,1,.229-1.777,6.628,6.628,0,0,1,1.27-2.641q.635-.736,1.117-.736a.559.559,0,0,1,.406.178.553.553,0,0,1,.2.432.563.563,0,0,1-.025.178,3.846,3.846,0,0,1-.508,1.092,6.167,6.167,0,0,0-1.066,3.174q-.025.406-.025.609a.541.541,0,0,0,.051.279.866.866,0,0,0,.178.178,1.629,1.629,0,0,0,.863.2,9.049,9.049,0,0,0,3.148-.838,30.385,30.385,0,0,0,6.17-3.555A17.459,17.459,0,0,0,129.949-8.7q.813-.851.813-1.257,0-.254-.368-.533a7.434,7.434,0,0,0-1.346-.711q-.978-.432-2.831-1.143-2.107-.813-3.034-1.231a11.789,11.789,0,0,1-1.587-.851,6.845,6.845,0,0,1-1.206-.965,6.888,6.888,0,0,1-.952-1.27q-.229-.381-.5-.8t-.419-.673a6.66,6.66,0,0,1-.914-3.4,7.722,7.722,0,0,1,.229-1.828,13.5,13.5,0,0,1,4.266-5.979,34.564,34.564,0,0,1,8.557-5.5q4.875-2.285,7.668-2.285a4.458,4.458,0,0,1,2.006.406,3.4,3.4,0,0,1,1.828,2.133q.2.635.457.635A.313.313,0,0,0,142.8-34a3.226,3.226,0,0,0,.457-.368q.355-.317.813-.749a9.842,9.842,0,0,1,1.206-1.079,1.348,1.348,0,0,1,.749-.267.62.62,0,0,1,.33.114,1.291,1.291,0,0,1,.317.292.532.532,0,0,1,.14.3.792.792,0,0,0,.127.254,3.268,3.268,0,0,0,.33.432,1.449,1.449,0,0,1,.3.889,2.069,2.069,0,0,1-.33,1.041,9.913,9.913,0,0,1-1.892,2.247q-1.257,1.155-2.552,2.171-1.219.965-1.9,1.625-.914.914-1.32,1.27a1.711,1.711,0,0,1-.635.406,1.9,1.9,0,0,1-.406.051q-.889,0-.889-1.016a3.923,3.923,0,0,1,.076-.711,5.294,5.294,0,0,1,.521-1.206,15.149,15.149,0,0,1,1.1-1.612q.355-.482.6-.838a1.437,1.437,0,0,0,.241-.432q0-.254-.508-.254a4.834,4.834,0,0,0-.863.1,27.01,27.01,0,0,0-7.782,3.123,36.506,36.506,0,0,0-7.4,5.383q-2.184,2.234-2.184,3.123,0,.406.965.978a35.377,35.377,0,0,0,3.682,1.714q2.234.965,3.466,1.625a8.648,8.648,0,0,1,1.892,1.295,4.217,4.217,0,0,1,1.27,1.8,2.687,2.687,0,0,0,.2.47,4.916,4.916,0,0,0,.33.546,4.723,4.723,0,0,1,.6,1.219,4.383,4.383,0,0,1,.165,1.244,5.266,5.266,0,0,1-1.447,3.58,17.657,17.657,0,0,1-4.634,3.644A18.165,18.165,0,0,1,122.357.559a9.94,9.94,0,0,1-1.676.152A7.1,7.1,0,0,1,118.955.508Zm20.414-3.1a4.788,4.788,0,0,1-.609-.432,8.937,8.937,0,0,1-.736-.66,5.732,5.732,0,0,1-1.066-1.27,6.33,6.33,0,0,1-.609-1.6,6.342,6.342,0,0,1-.2-1.536v-.9a10.45,10.45,0,0,1,.152-1.9,19.91,19.91,0,0,1,1.092-3.288,19.535,19.535,0,0,1,1.676-3.161,10.169,10.169,0,0,1,1.308-1.612,5.655,5.655,0,0,1,1.308-1.028,3.1,3.1,0,0,1,1.244-.3,1.711,1.711,0,0,1,1.473.813q.127.178.3.432t.33.432a2.713,2.713,0,0,1,.571.889,2.1,2.1,0,0,1,.063.432,1.691,1.691,0,0,1-.178.711,1.3,1.3,0,0,0-.178.609.479.479,0,0,0,.025.152,2.613,2.613,0,0,0,.533.863,6.613,6.613,0,0,1,.9,1.384,4.248,4.248,0,0,1,.317,1.485,1.469,1.469,0,0,0,.178.774.409.409,0,0,0,.279.114,1.3,1.3,0,0,0,.406-.076,6.567,6.567,0,0,0,1.447-.584q.889-.457,1.8-1.041a6.924,6.924,0,0,1,.8-.5,1.529,1.529,0,0,1,.47-.19.416.416,0,0,1,.19.063.388.388,0,0,1,.165.165.437.437,0,0,1,.1.279,1.222,1.222,0,0,1-.381.711,15.87,15.87,0,0,1-2.158,1.828,11.382,11.382,0,0,1-3.047,1.752q-.229.1-.444.19t-.317.14a1.681,1.681,0,0,0-.3.419q-.2.343-.432.825a12.444,12.444,0,0,1-.914,1.676,8.495,8.495,0,0,1-1.066,1.295,5.241,5.241,0,0,1-3.453,1.854A2.78,2.78,0,0,1,139.369-2.59Zm5.408-8.836a3.619,3.619,0,0,0,.229-.914,6.984,6.984,0,0,0,.051-.736,2.219,2.219,0,0,0-.051-.482,2.212,2.212,0,0,0-.355-.863.89.89,0,0,0-.559-.406h-.076a.473.473,0,0,0-.3.1,1.5,1.5,0,0,0-.381.508,2.229,2.229,0,0,0-.152.508,5.739,5.739,0,0,0-.051.914q0,.482.013.724a.856.856,0,0,0,.076.355,1.123,1.123,0,0,0,.19.241,1.889,1.889,0,0,0,.482.33,1.02,1.02,0,0,0,.406.1.563.563,0,0,0,.178-.025.338.338,0,0,0,.152-.127A2.675,2.675,0,0,0,144.777-11.426Zm-3.986,5.662a6.531,6.531,0,0,0,1.4-1.143q1.244-1.27,1.244-1.752a.283.283,0,0,0-.025-.127,3.041,3.041,0,0,0-.394-.444q-.317-.317-.711-.686t-.724-.622a1.245,1.245,0,0,0-.406-.254q-.229,0-.559.711A12.185,12.185,0,0,0,140-8.43a11.914,11.914,0,0,0-.368,1.523,6.4,6.4,0,0,0-.089.813.89.89,0,0,0,.076.432.437.437,0,0,0,.355.152A1.967,1.967,0,0,0,140.791-5.764ZM153.613-2.59A4.788,4.788,0,0,1,153-3.021a8.937,8.937,0,0,1-.736-.66,5.732,5.732,0,0,1-1.066-1.27,6.33,6.33,0,0,1-.609-1.6,6.342,6.342,0,0,1-.2-1.536v-.9a10.45,10.45,0,0,1,.152-1.9,19.91,19.91,0,0,1,1.092-3.288,19.535,19.535,0,0,1,1.676-3.161,10.169,10.169,0,0,1,1.308-1.612,5.655,5.655,0,0,1,1.308-1.028,3.1,3.1,0,0,1,1.244-.3,1.711,1.711,0,0,1,1.473.813q.127.178.3.432t.33.432a2.713,2.713,0,0,1,.571.889,2.1,2.1,0,0,1,.063.432,1.691,1.691,0,0,1-.178.711,1.3,1.3,0,0,0-.178.609.479.479,0,0,0,.025.152,2.613,2.613,0,0,0,.533.863,6.613,6.613,0,0,1,.9,1.384,4.248,4.248,0,0,1,.317,1.485,1.469,1.469,0,0,0,.178.774.409.409,0,0,0,.279.114,1.3,1.3,0,0,0,.406-.076,6.567,6.567,0,0,0,1.447-.584q.889-.457,1.8-1.041a6.924,6.924,0,0,1,.8-.5,1.529,1.529,0,0,1,.47-.19.416.416,0,0,1,.19.063.388.388,0,0,1,.165.165.437.437,0,0,1,.1.279,1.222,1.222,0,0,1-.381.711,15.87,15.87,0,0,1-2.158,1.828,11.382,11.382,0,0,1-3.047,1.752q-.229.1-.444.19t-.317.14a1.681,1.681,0,0,0-.3.419q-.2.343-.432.825a12.444,12.444,0,0,1-.914,1.676,8.495,8.495,0,0,1-1.066,1.295,5.241,5.241,0,0,1-3.453,1.854A2.78,2.78,0,0,1,153.613-2.59Zm5.408-8.836a3.619,3.619,0,0,0,.229-.914,6.984,6.984,0,0,0,.051-.736,2.219,2.219,0,0,0-.051-.482,2.212,2.212,0,0,0-.355-.863.89.89,0,0,0-.559-.406h-.076a.473.473,0,0,0-.3.1,1.5,1.5,0,0,0-.381.508,2.229,2.229,0,0,0-.152.508,5.739,5.739,0,0,0-.051.914q0,.482.013.724a.856.856,0,0,0,.076.355,1.123,1.123,0,0,0,.19.241,1.889,1.889,0,0,0,.482.33,1.02,1.02,0,0,0,.406.1.563.563,0,0,0,.178-.025.338.338,0,0,0,.152-.127A2.675,2.675,0,0,0,159.021-11.426Zm-3.986,5.662a6.531,6.531,0,0,0,1.4-1.143q1.244-1.27,1.244-1.752a.283.283,0,0,0-.025-.127,3.041,3.041,0,0,0-.394-.444q-.317-.317-.711-.686t-.724-.622a1.245,1.245,0,0,0-.406-.254q-.229,0-.559.711a12.185,12.185,0,0,0-.609,1.65,11.914,11.914,0,0,0-.368,1.523,6.4,6.4,0,0,0-.089.813.89.89,0,0,0,.076.432.437.437,0,0,0,.355.152A1.967,1.967,0,0,0,155.035-5.764Zm20.643,3.148a3.733,3.733,0,0,1-1.866-1.257,3.942,3.942,0,0,1-.6-2.247q-.025-.254-.025-.508a13.964,13.964,0,0,1,1.549-5.561q.33-.736.482-1.13a1.859,1.859,0,0,0,.152-.546q0-.127-.1-.127-.2,0-1.066.787t-1.93,1.942q-1.066,1.155-1.98,2.323-.736.914-1.371,1.727-.254.3-.406.508-.889,1.117-1.574,1.117a.479.479,0,0,1-.152-.025,3.674,3.674,0,0,1-.787-.3,3.232,3.232,0,0,1-.686-.432,2.518,2.518,0,0,1-.686-2.006,11.692,11.692,0,0,1,.482-2.945,27.878,27.878,0,0,1,1.93-4.951q1.777-3.631,2.742-3.859l.127-.025a.893.893,0,0,1,.432.127,1.091,1.091,0,0,1,.508.457,1.5,1.5,0,0,0,.406.47,1.857,1.857,0,0,0,.609.267,2.472,2.472,0,0,1,.724.457,2.108,2.108,0,0,1,.521.686,1.352,1.352,0,0,1,.152.609,2.118,2.118,0,0,1-.406,1.168,8.279,8.279,0,0,0-1.016,1.828q0,.127.051.127a.958.958,0,0,0,.2-.1q.127-.076.863-.673t1.7-1.435q.99-.863,1.714-1.46t.851-.673a1.127,1.127,0,0,1,.508-.127,1.011,1.011,0,0,1,.66.254,3.928,3.928,0,0,0,.355.3q.229.178.457.33a2.011,2.011,0,0,1,.686.838,1.977,1.977,0,0,1,.2.939,3.637,3.637,0,0,1-.076.711,21.868,21.868,0,0,1-1.117,3.3q-.508,1.346-.851,2.247t-.533,1.447q-.19.546-.254.787a1.58,1.58,0,0,0-.063.368v.051a.12.12,0,0,0,.127.1q.457-.076,3.885-4.139,1.193-1.422,1.815-2.12a7.389,7.389,0,0,1,.914-.914.889.889,0,0,1,.47-.216h.178a.66.66,0,0,1,.2.025.512.512,0,0,1,.229.2.6.6,0,0,1,.114.394,1.467,1.467,0,0,1-.241.6q-.229.381-.736,1.066-.736.99-2.006,2.806t-2.158,3.161q-.686.965-1.384,1.765A8.455,8.455,0,0,1,177.4-2.92a2.118,2.118,0,0,1-1.168.406A1.625,1.625,0,0,1,175.678-2.615Zm12.289,5.561a3.033,3.033,0,0,1-.787-.432,2.473,2.473,0,0,1-.508-.584,1.754,1.754,0,0,1-.254-.99A5.507,5.507,0,0,1,186.8-.838a5.715,5.715,0,0,1,1-2.209,1.193,1.193,0,0,1,.647-.254,2.732,2.732,0,0,1,1.346.508A4.121,4.121,0,0,1,191-1.917a1.625,1.625,0,0,1,.343.978,1.292,1.292,0,0,1,.025.254.563.563,0,0,1-.025.178.669.669,0,0,1-.089.317,4.162,4.162,0,0,1-.317.47q-.178.254-.457.673l-.533.8a8.513,8.513,0,0,1-.736,1.054.772.772,0,0,1-.559.317A1.939,1.939,0,0,1,187.967,2.945Zm2.387-12.264a1.987,1.987,0,0,1-.419-.292,2.24,2.24,0,0,1-.343-.368,3.081,3.081,0,0,1-.19-.343.947.947,0,0,1-.076-.33q-.013-.19-.013-.6a5.267,5.267,0,0,1,.254-1.574q.254-.813,1.041-2.615,1.473-3.25,4.126-8.188t4.608-8.036a60.772,60.772,0,0,1,3.809-5.383q1.854-2.311,2.438-2.437a.835.835,0,0,1,.2-.025.815.815,0,0,1,.482.127,2.034,2.034,0,0,1,.508.584,1.87,1.87,0,0,0,.686.609,2.039,2.039,0,0,1,1.27,1.8,2.95,2.95,0,0,1-.33,1.27,3.276,3.276,0,0,1-.292.546q-.216.343-.711,1.041t-1.4,1.98q-.9,1.282-2.374,3.364-1.041,1.473-1.993,2.831t-1.358,1.942q-1.93,2.844-4,6.284t-3.542,6.233q-.355.66-.647,1.143a4.562,4.562,0,0,1-.368.559.892.892,0,0,1-.482.127A2.046,2.046,0,0,1,190.354-9.318Z" transform="translate(83.27 466.468)" fill="#13171d"/>
    <g id="Group_12046" data-name="Group 12046" transform="translate(129 341.532)">
      <g id="Group_12045" data-name="Group 12045" clip-path="url(#clip-path)">
        <path id="Path_16269" data-name="Path 16269" d="M2.94,40.78c.01-.054,0-.13.034-.158.269-.232.545-.456.818-.681.026.235.054.469.085.736l.438-.108c-.081-.195-.051-.4-.321-.4-.072,0-.142-.142-.213-.218a.988.988,0,0,1-.132-1.345A9.523,9.523,0,0,1,5.391,36.4c.444-.477.917-.926,1.356-1.407.375-.411.7-.869,1.083-1.269A4.421,4.421,0,0,0,8.963,32.3a.885.885,0,0,1,.568-.479,3.081,3.081,0,0,0,1.613-1.032c.691-.677,1.354-1.383,2.019-2.086a.776.776,0,0,1,.662-.317c.414.024.565-.2.412-.613a.408.408,0,0,1,.05-.454c.263-.334.53-.665.8-1.008l.475.167c-.015.238-.042.469-.041.7a.761.761,0,0,0,.08.441.406.406,0,0,0,.388-.046.726.726,0,0,0,.087-.5c-.077-.34-.234-.661-.312-1a.467.467,0,0,1,.175-.358,5.15,5.15,0,0,1,.615-.388,5.823,5.823,0,0,0,.707.358.464.464,0,0,0,.4-.053c.073-.07.065-.265.038-.393a1.009,1.009,0,0,1,.4-1.187,1.319,1.319,0,0,0,.245-.3l.386.151-.108.38.534-.1-.2-.478-.233.206a2.754,2.754,0,0,0-.2-.422c-.329-.465-.32-.752.065-1.129.944-.923,1.87-1.865,2.838-2.762.936-.867,1.914-1.688,2.875-2.528.083-.072.177-.131.26-.191l.592.366c-.025.242-.063.519-.078.8,0,.1.044.28.076.282a.839.839,0,0,0,.406-.076A.263.263,0,0,0,25.626,18c-.231-.325-.062-.748-.3-1.1a.524.524,0,0,0,.184-.838c.136-.129.254-.244.375-.356,1.094-1.008,2.194-2.011,3.282-3.025a34.265,34.265,0,0,1,4.189-3.418A19.714,19.714,0,0,0,35.319,7.7a11.752,11.752,0,0,1,3.7-2.349,1.648,1.648,0,0,0,.422-.258c.208-.161.2-.168.562-.127.056-.231.411-.274.376-.6,0-.04.133-.11.213-.141.433-.166.867-.332,1.307-.481a1.7,1.7,0,0,1,.367-.019.3.3,0,0,0,.177-.057c.309-.317.74-.3,1.123-.408.1-.029.244.057.364.1.291.1.58.215.9.333a.811.811,0,0,1,1.2-.459,12.917,12.917,0,0,0,1.861.425c1.782.453,3.575.863,5.36,1.306.757.188,1.507.406,2.25.64a1.486,1.486,0,0,1,.48.356c.316.285.616.587.934.868A.848.848,0,0,0,57.262,7c.3.075.474-.1.35-.394-.165-.389.077-.719.121-1.071.02-.164.342-.291.552-.453.088.05.195.112.3.172.106.3.106.3.429.2l-.155-.324-.288.143a2.1,2.1,0,0,0-.074-.358c-.038-.1-.2-.041-.193-.284.008-.291.014-.52.236-.693A25.41,25.41,0,0,1,60.9,2.167a24.81,24.81,0,0,1,3.17-1.6,5.523,5.523,0,0,1,2.7-.543c.365.035.74-.036,1.108-.017a2.778,2.778,0,0,1,.563.169.694.694,0,0,0,.224.017c.3-.018.608-.041.749.389a.674.674,0,0,1,.759-.191,10.425,10.425,0,0,0,2.2.285,9.624,9.624,0,0,1,1.678.372,2.258,2.258,0,0,0,.481.112,2.611,2.611,0,0,1,1.311.409C77.12,2.295,78.4,3,79.676,3.738a4.28,4.28,0,0,1,.581.5,5.234,5.234,0,0,0,.466.379c.184.123.386.219.577.326-.017.126-.031.233-.054.4H82.2l.187.427,1.915.76-1.085.445c0,.03,0,.059.007.089A7,7,0,0,0,83.991,7a.44.44,0,0,1,.514.216c.164.246.507.37.416.785-.021.1.359.395.4.369.388-.263.585.169.88.2.315-.309.529-.268.84.176a.735.735,0,0,1,.828.039c.061.042.166.086.169.134.029.492.447.732.745,1.107l-.52.167.551.772-.513.056.5.263c-.255.575-.512,1.148-.764,1.723-.081.185-.292.354-.038.585.053.049-.025.245-.046.373-.026.155-.057.31-.1.518.476-.107.357-.605.658-.758l.178.226a2.827,2.827,0,0,0,.449-1.938,1.187,1.187,0,0,1,.4-1.144c.275-.216.18-.527.144-.878.434.363.61.957,1.292.872l-.236.567a3.825,3.825,0,0,0,.863-.091.5.5,0,0,1,.581.169l-.377.459a.316.316,0,0,0-.55.058.292.292,0,0,0,.071.272c.156.124.315.017.467-.29.007-.015,0-.037,0-.055l.286.089.359-.336c.4.111.74.262.843.709s-.374.379-.6.683a3.417,3.417,0,0,1,1.019-.037,3.32,3.32,0,0,1,.827.547c-.342.622.339.675.523,1.114l.177-.351.608.262.188-.284.626.124c-.152.511-.041,1.017-.312,1.522a19.4,19.4,0,0,0-.831,2.124c-.153.39-.334.77-.5,1.154l.09.079c.081-.07.2-.124.238-.212a15.857,15.857,0,0,0,1.292-2.952,2.9,2.9,0,0,1,.241-.525l.542.3-.112-.445.085-.059a7.9,7.9,0,0,1,.655.64.486.486,0,0,1,.055.4,12.342,12.342,0,0,1-.469,1.191c-.283.622-.592,1.233-.878,1.853a.605.605,0,0,0-.014.414c.818-.834,1.038-2.008,1.725-2.909-.275,1.044-.717,2.031-1.05,3.057a1.111,1.111,0,0,0,.616-.826,9.463,9.463,0,0,1,.376-.886c.178-.446.292-.917.442-1.406l.81-.25c.257.04.488.071.718.113a1.52,1.52,0,0,1,1.114.53,2.122,2.122,0,0,0,.738.563,11.028,11.028,0,0,1,1.231.935c.144.113.275.247.427.348q1.7,1.122,3.4,2.234a1.679,1.679,0,0,0,.48.272,2.522,2.522,0,0,1,1.185.685c.183.176.453.267.62.453.381.424.722.883,1.1,1.349l-.377.212c0,.24.157.3.323.341.2.05.405.074.6.143.382.139.477.34.4.759a.707.707,0,0,0,.265.746,2.474,2.474,0,0,0,.776.421.757.757,0,0,1,.577.662c.121.532.262.651.763.708a.639.639,0,0,1,.376.159c.237.256.441.541.675.837l-.223.129c0,.034,0,.084.015.1a11.035,11.035,0,0,0,.858.707c.3.206.47.42.287.786-.024.048-.056.124-.036.158a1.459,1.459,0,0,1,.16,1.241c.215.2.022.408-.029.637a1.237,1.237,0,0,0,.33.092.545.545,0,0,1,.628.423c.055.21.237.2.4.22.2.018.414.1.4.3a.651.651,0,0,1-.288.433,10.736,10.736,0,0,1-1.314.724.725.725,0,0,0-.455.577.711.711,0,0,1-.346.529,6.49,6.49,0,0,1-.513.429,10.706,10.706,0,0,1-1.064.589c-.318.151-.675.223-.983.39a3.068,3.068,0,0,1-1.271.358,3.306,3.306,0,0,0-.96.271.749.749,0,0,1-.87-.148.545.545,0,0,0-.659-.092c-.563.242-1.144.443-1.71.68a6.814,6.814,0,0,0-.626.357,1.63,1.63,0,0,1-1.574.267.582.582,0,0,0-.323-.045,1.157,1.157,0,0,1-1.271-.607c-.387-.649-1.063-.507-1.641-.628-.07-.015-.184.107-.257.185a1.633,1.633,0,0,1-1.7.442,58.862,58.862,0,0,1-7.723-2.37,23.651,23.651,0,0,0-4.408-1.391A30.454,30.454,0,0,1,84.033,33.9l1.586-2.478c-.262-.029-.327.153-.429.281-.453.566-.908,1.132-1.345,1.711a.585.585,0,0,1-.715.247,16.516,16.516,0,0,0-4.03-.49l-5.187-.24c-.125-.006-.25-.025-.458-.047.4-.5.954-.824.952-1.6-.251.245-.441.444-.646.628s-.45.38-.733.617v-.545c-.058.009-.1,0-.112.018-.121.228-.237.458-.354.69a1.2,1.2,0,0,1-.52-1.275,11.369,11.369,0,0,0,.192-1.541,3.525,3.525,0,0,0-.159-.8,2.482,2.482,0,0,0-.349,1.063,8.978,8.978,0,0,1-.247,1.2c-.185.559-.342.619-.926.475-.178-.044-.35-.11-.547-.173a2.412,2.412,0,0,0-.2.171,1.782,1.782,0,0,1-1.549.589,2.53,2.53,0,0,1-1.746-.751l-.816-.893a8.266,8.266,0,0,1-2.8.5,6.526,6.526,0,0,0-3.4,1.115,3,3,0,0,1-2.323.577,2.474,2.474,0,0,1-.96-.4,3.347,3.347,0,0,1-1.527-2.563,1.211,1.211,0,0,0-.227-.02,1.613,1.613,0,0,0-.25.071c.069.3.141.586.2.874.154.758-.107,1.122-.874,1.12a7.358,7.358,0,0,1-1.431-.177,2.208,2.208,0,0,1-1.407-1.025l-.319-.481a1.734,1.734,0,0,1-.43,1.306c-.063.066-.039.213-.058.322a1,1,0,0,1-1.489.724c-.1-.061-.146-.231-.221-.357l-.149.231-.679-.71a3.192,3.192,0,0,0-.132.4,1.249,1.249,0,0,1-.553.926,1.107,1.107,0,0,0-.265.345,1.321,1.321,0,0,1-1.565.637.589.589,0,0,0-.4.071,2.045,2.045,0,0,1-1.5.211A4.882,4.882,0,0,1,40.8,33.428c-.264-.188-.547-.349-.822-.523l-.086.1a7.348,7.348,0,0,1,.82,1.275,6.908,6.908,0,0,1,.262,1.436c-.317.307-.571.565-.839.807a2.854,2.854,0,0,1-.531.4c-.883.477-1.786.918-2.659,1.413a8.809,8.809,0,0,1-2.834.969,4.018,4.018,0,0,0-.756.176,1.188,1.188,0,0,0-.477.344c-.407.507-.776,1.045-1.186,1.55a1.352,1.352,0,0,1-.525.388c-.534.215-1.08.4-1.629.577a1.923,1.923,0,0,0-.811.462,2.574,2.574,0,0,1-2.063.805,2.726,2.726,0,0,0-1.761.6,19.018,19.018,0,0,1-3.892,2.153c-.807.323-1.641.582-2.435.951a2.048,2.048,0,0,1-.76.132,9.24,9.24,0,0,0-2.407.433,3.188,3.188,0,0,1-.876.13c-.893.02-1.787.018-2.68.019A8.329,8.329,0,0,1,10.7,48a1.417,1.417,0,0,1-.648-.289,2.4,2.4,0,0,0-1.229-.48,12.058,12.058,0,0,1-1.215-.143,1.631,1.631,0,0,1-1.38-1.069c-.246-.732-.62-1.422-1-2.262a1.562,1.562,0,0,0-.14.411.81.81,0,0,0,.111.313c.176.348.381.684.53,1.043.142.34.229.7.351,1.092-.244.056-.355-.1-.468-.267-.258-.385-.517-.77-.788-1.146a4.306,4.306,0,0,0-.4-.407c-.054.446.215.612.325.842a7.26,7.26,0,0,0,.441.715c-.478.083-.728-.044-.855-.441a5.5,5.5,0,0,1-.149-.652c-.168-.893-.244-.962-1.129-.966a1.762,1.762,0,0,1-.1-.528c.074-.585-.291-.878-.7-1.151a2.156,2.156,0,0,1-.279-.178c-.19-.174-.2-.348.064-.519a4.072,4.072,0,0,0,.489.186c.268.068.5-.139.374-.36-.2-.349-.049-.644.023-.961ZM23.809,27.372a.7.7,0,0,0,.212.787l-.212-.787-.249-.7-.129.055c.135.212-.04.561.377.649m26.367-.439q-.024.268-.048.536l.077,0-.029-.537q-.095-.448-.19-.9c-.005.316-.109.662.19.9M10.212,47.043a1.059,1.059,0,0,0-.56-.8l-.131-.618c.183.166.326.3.475.427.013.011.059-.018.1-.032l-.06-.444.114-.045c.058.113.173.231.164.338a1.58,1.58,0,0,0,.772,1.375c.081.068.232.053.35.076.032.159.086.291.328.168l-.35-.146a1.783,1.783,0,0,0-.3-.513,2.668,2.668,0,0,1-.776-1.387c-.137-.478-.226-.969-.337-1.453-.145-.631-.288-1.261-.441-1.89a1.586,1.586,0,0,0-.163-.311,1.1,1.1,0,0,0-.188.769c-.008.254.2.512,0,.824a2.257,2.257,0,0,1-.217-.3c-.319-.69-.646-1.378-.94-2.079a1.911,1.911,0,0,0-.55-.836,2.692,2.692,0,0,0-.067.76,7.02,7.02,0,0,0,.46,1.919,1.227,1.227,0,0,1,.086,1.35c.1.111.152.235.243.271a1.662,1.662,0,0,1,.789.816c.2.33.434.634.654.949l.555.8a1.889,1.889,0,0,0,.563.712l.106-.108q-.34-.3-.679-.593M90.885,26.676c.427-.1.567-.492.806-.782a1.217,1.217,0,0,0-.792.8c-.368.1-.494.426-.66.713a1.008,1.008,0,0,0,.646-.727m11.6,2.767c.138-.072.322-.11.408-.223.674-.888,1.33-1.789,1.987-2.69a.846.846,0,0,0,.08-.236.992.992,0,0,0-.407.367c-.121.164-.206.387-.367.486a3.364,3.364,0,0,0-.98,1.25c-.226.355-.476.7-.712,1.041.105.248-.111.369-.22.521-.4.561-.821,1.11-1.28,1.726a5.622,5.622,0,0,0,2.011-2.243ZM28.888,30.6c-.162.058-.313.105-.443-.079-.214-.3-.439-.6-.668-.887-.27-.344-.55-.681-.825-1.021a6.968,6.968,0,0,0,.635,1.941,10.8,10.8,0,0,1-1.3-.615.717.717,0,0,1-.267-.274c-.131-.24-.235-.5-.359-.764l.221-.243a13.38,13.38,0,0,1-2.356-4.105,1.264,1.264,0,0,1-.112.254c-.2.236.064.643-.3.812l.194.732.171-.236a26.683,26.683,0,0,1,2.215,3.346l-.149.318a4.94,4.94,0,0,0,1.472,1.2c.206.139.384.334.7.238a.53.53,0,0,1,.443.185,12.043,12.043,0,0,1,.934,1.374c.206.365.277.807.487,1.169A7.578,7.578,0,0,0,31.2,35.913a.9.9,0,0,0,.3.094c-.126-.746-.914-1.068-.988-1.834a1.511,1.511,0,0,1,.887.674,3.09,3.09,0,0,0,.32.451c.511.51,1.034,1.007,1.583,1.538l.55-.363a7.708,7.708,0,0,1-2.354-1.87A20.307,20.307,0,0,1,30.1,32.8a3.462,3.462,0,0,1-.366-.616c-.085-.185,0-.319.218-.366.186.251.375.5.555.753a6.641,6.641,0,0,0,.506.731c.2.21.25.564.656.723a2.1,2.1,0,0,0-.126-.465c-.23-.379-.48-.747-.722-1.119a4.418,4.418,0,0,1-.856-1.647c-.407.178-.271.485-.2.758l-.307.149a1.411,1.411,0,0,1-.584-1.124c.155-.072.155-.072.016-.273Zm50.7-.107.115.1a2.612,2.612,0,0,0,.434-.313c.415-.452.825-.91,1.211-1.388a3.342,3.342,0,0,0,.317-.627,4.211,4.211,0,0,1,.483-.93,10.953,10.953,0,0,0,1.426-2.189,4.117,4.117,0,0,1,1.09-1.307,6.167,6.167,0,0,0,1.565-2.32c.065-.138.12-.281-.141-.374l-.966,1.7a.368.368,0,0,1,.014-.285c.408-.895.839-1.779,1.217-2.687a2.1,2.1,0,0,0,.158-1.015.9.9,0,0,1,.159-.668c.277-.418.556-.834.824-1.258a1.724,1.724,0,0,0,.167-.4c.013-.04-.032-.1-.062-.182l-.217.136-.335-.3a9.694,9.694,0,0,0-.213,1.167,1.243,1.243,0,0,1-.392.772c-.179.2-.376.434-.715.282a6.609,6.609,0,0,1-.877,2.388c-.435.735-.932,1.433-1.363,2.17-.3.522-.6,1.015-1.251,1.111-.117-.4-.467-.423-.793-.536a20.238,20.238,0,0,0-1,2.422l.815-.163a2.922,2.922,0,0,1,.024.325,5.087,5.087,0,0,1-.593,2.132c-.277.526-.561,1.049-.83,1.58-.107.21-.182.437-.271.656M41.225,11.453c.058.018.126.041.194.06.617.176.889.061,1.21-.517a4.453,4.453,0,0,1,.318-.584c.116-.15.285-.34.446-.357.314-.032.7-.239.933.2a.25.25,0,0,0,.2.081c.347-.015.723.025.955-.314a.541.541,0,0,1,.58-.24c.427.074.849.176,1.336.279.091-.161.351-.329.118-.726-.306.373-.631.188-.931.062-.278-.116-.712.127-.8-.277a2.218,2.218,0,0,0-.736.012,2.121,2.121,0,0,1-2.177-.318,1.812,1.812,0,0,0-.36-.257c-.123-.049-.347-.095-.4-.033-.3.36-.72.28-1.058.3l-.318.806c.065.148.143.356.246.55a.417.417,0,0,1-.065.517,1.621,1.621,0,0,1-1.23.631,1.008,1.008,0,0,0-.723.181c-.286.331-.508.181-.872-.1.094.433.155.714.218.994l-.273.4c-.285-.566-.285-.566-.588-.558l1.192,3.322c.319-.094.285-.286.208-.5-.128-.349-.263-.7-.375-1.05-.063-.2-.131-.414.059-.6.189.173.132.5.45.579l.33-1,.365.021.121-.59.682-.406.212.182.212.181c.025-.587.025-.587.324-.942m62.589,12.414c-.889-.855-1.734-.641-2,.468a1.685,1.685,0,0,1-.628,1.019,1.647,1.647,0,0,0-.347.357c-.365.514-.683,1.065-1.083,1.55q-1.384,1.677-2.837,3.3a11.608,11.608,0,0,1-1.2,1.019c.1.057.16.117.226.125a2.047,2.047,0,0,0,1.64-.346c.43-.353.87-.7,1.267-1.088a36.3,36.3,0,0,0,3.568-4.356,3.044,3.044,0,0,0,.675-1.594l.4.106.315-.557m-29.137,5.9,1.85-2.511c.393.492-.183.867-.133,1.29h.726c.156-.426.09-.922.575-1.11.035-1.344.063-2.663.11-3.981a2.719,2.719,0,0,1,.15-.81c.339-.942.711-1.873,1.059-2.813a6.183,6.183,0,0,0,.3-2.729,16.264,16.264,0,0,1-.708,2.878l-.3-.233c-.071.132-.126.222-.171.318-.37.79-.726,1.588-1.113,2.37-.18.364-.448.685-.626,1.05a1.812,1.812,0,0,0-.305,1.1l.386-.258c-.048.468-.062.859-.137,1.239a1.72,1.72,0,0,1-.285.6c-.592.877-1.2,1.743-1.793,2.619a1.805,1.805,0,0,0-.152.427c.557-.291.708-.9,1.17-1.239-.106.288-.258.545-.372.818s-.445.47-.232.983M77.434,9.436c-.136-.295.119-.625-.219-.921a3.486,3.486,0,0,0-.115.445c-.057.516-.086,1.036-.156,1.55a2.091,2.091,0,0,1-1.223,1.825l-.326-.264c-.2.58-.366,1.135-.594,1.661a4.429,4.429,0,0,1-.715,1.248,1.146,1.146,0,0,0-.328.867l.765.088.9-2.761a7.57,7.57,0,0,1-.9,3.581c.123-.024.215-.014.247-.053.261-.313.521-.627.761-.957a2.6,2.6,0,0,1,.835-.919.827.827,0,0,0,.381-.916,1.4,1.4,0,0,1,.194-1.11,13.179,13.179,0,0,0,1.618-4.366,3.005,3.005,0,0,0,0-.368c-.52.4-.425.982-.657,1.463-.069-.26.123-.506-.188-.709l-.274.616M91.669,31.095a3.676,3.676,0,0,1,.344-.428,2.389,2.389,0,0,1,.415-.278,21.077,21.077,0,0,0,3.815-2.881c.168-.158.382-.4.368-.589-.022-.288.121-.383.282-.534a3.863,3.863,0,0,0,.593-.655.567.567,0,0,0-.1-.864l.144-.642-.124-.072c-.12.124-.241.247-.36.371-.138.144-.252.372-.416.416a.977.977,0,0,0-.5.4,7.865,7.865,0,0,1-2.021,2.053c-.12.066-.186.229-.277.348l.075.059.316-.143a22.539,22.539,0,0,0-3.141,3.228l.586.212M66.436,25.248l.131.035.886-4.714.139.018a17.789,17.789,0,0,1-.388,4.371,1.013,1.013,0,0,0,.348-.752q.178-1.69.347-3.38a17.209,17.209,0,0,0,.144-1.72c0-1.3-.059-2.6-.078-3.9a.5.5,0,0,0-.466-.561,8.137,8.137,0,0,0-.55,2.46c-.017.7-.106,1.408-.17,2.111a10.1,10.1,0,0,0-.1,3.155,1.847,1.847,0,0,1-.012.555c-.072.775-.15,1.549-.226,2.323M13.092,38.333c.35.411.679.761.965,1.143.568.757,1.148,1.509,1.654,2.307a4.886,4.886,0,0,0,1.513,1.592,23.877,23.877,0,0,0,2.291,1.151,1.878,1.878,0,0,0,.465.092c.116-.518.117-.521-.242-.681-.186-.083-.385-.138-.566-.23a4.974,4.974,0,0,1-1.624-1.039q-.822-.946-1.569-1.956a1.232,1.232,0,0,1-.258-.993l.351.2a29.77,29.77,0,0,1-1.715-3.78,5.786,5.786,0,0,0-.409-.906c-.005-.011-.032-.015-.048-.014a.449.449,0,0,0-.085.026c-.031.633-.126,1.28.468,1.77.083.068.162.281.122.336-.2.278.025.435.118.644.346.776,1.052,1.458.659,2.439q-.745-.9-1.486-1.794c-.15-.181-.273-.411-.6-.3M51.749,19.75a.619.619,0,0,0-.282.628,17.993,17.993,0,0,1,.115,3.447,19.3,19.3,0,0,0,.432,3.754c0,.032.041.06.076.107.249.044.425-.009.426-.325,0-.39.005-.781.016-1.171.037-1.39.067-2.78.14-4.17a2.161,2.161,0,0,0-.921-2.271m56.652,11.4a5.89,5.89,0,0,0-.624.1c-.2.056-.394.149-.608.232,0-.793.152-1.068-.507-1.7l-.293.277c-.07-.443-.389-.173-.62-.2-.022-.146,0-.339-.065-.381-.318-.193-.165-.471-.146-.717a2.852,2.852,0,0,0-2.6,1.62,3.206,3.206,0,0,0,1.471.043c.334-.055.488,0,.588.3.015.044.078.073.131.12l.42-.124.251.339c-.1.3-.416.5-.26.862.5.084.7-.5,1.169-.545a1.7,1.7,0,0,0-.057.357c.008.119.021.287.1.339a.417.417,0,0,0,.35-.032c.195-.1.362-.26.551-.376a.588.588,0,0,1,.649-.108l-.261.8a1.266,1.266,0,0,0,.366-1.2M68.9,2.715V4.878c.236.054.28-.091.321-.24.068-.25.147-.5.2-.749.08-.359.329-.445.675-.466-.02.341-.447.474-.354.927l.71-.822a6.731,6.731,0,0,1,1.083.063c.448.1.628-.325,1.066-.5a.815.815,0,0,0,.3.985.6.6,0,0,1,.252.613,2.137,2.137,0,0,0,.127.579l.884-.777.113.595c.325-.229.266-.512.222-.78-.048-.294-.218-.364-.47-.2-.161.107-.3.24-.423.336-.127-.306-.239-.568-.343-.832-.11-.282-.225-.565-.314-.854s-.217-.365-.469-.177c-.2.151-.388.325-.6.506-.2-.887-.7-1.152-1.368-.78-.12-.049-.241-.095-.36-.147s-.256-.123-.38-.183c-.366.574-.385.591-.875.741M51.1,26.769l.143-.03c.008-.089.017-.178.025-.268a15.6,15.6,0,0,0-.159-3.495c-.017-.124-.065-.318-.007-.365.225-.181.12-.392.054-.553a4.422,4.422,0,0,1-.293-1.351c-.018-.224-.035-.484-.355-.6a5.429,5.429,0,0,1-.284.893.831.831,0,0,0-.047.635c.166.678.345,1.354.462,2.041.143.839.226,1.688.342,2.532.026.188.078.373.119.56m42.97-1.3-.4-.942c-.141.315-.232.543-.344.76s-.253.444-.381.665c.075-.485.37-.917.067-1.413a2.021,2.021,0,0,0-.224.5c-.092.261-.169.529-.285.778a4.579,4.579,0,0,1-.977,1.4c-.165.158-.308.333-.047.578.132-.072.258-.139.383-.209.422-.234.646-.766,1.2-.8.026,0,.05-.051.073-.08l.933-1.238M14.255,43.716c0-.439-.536-.578-.5-1.072.574.666,1.018,1.4,2,1.639a4.078,4.078,0,0,1-.712-.806,7.557,7.557,0,0,0-.678-1.173,2.124,2.124,0,0,0-1.085-.838c-.031.317-.329.536-.177.9.17.406.288.834.407,1.189l.749.164m63.92-30,.132.075a1.1,1.1,0,0,0,.429-.664c.4-1.033.8-2.066,1.187-3.1a7.238,7.238,0,0,0,.422-2.621c0-.152.03-.342-.267-.391-.023.179-.051.333-.064.49a7.318,7.318,0,0,1-.125,1.431c-.331,1.137-.731,2.254-1.124,3.372-.169.48-.392.941-.59,1.41M49.99,28.873l.09-.019c-.192-1.353-.372-2.708-.586-4.058a4.662,4.662,0,0,0-.333-.881c-.436.457-.438.457-.318.907.167.626.329,1.253.506,1.876.206.727.427,1.45.641,2.175m-39.7,6.111-.164.046a1.559,1.559,0,0,0,.007.48A9.812,9.812,0,0,0,11.7,38.954a.817.817,0,0,1,.094.2q.417.907.836,1.814a2.042,2.042,0,0,0,.131.212.3.3,0,0,0,.055-.279c-.316-.705-.6-1.433-.975-2.1a12.3,12.3,0,0,1-1.159-2.806,10.559,10.559,0,0,0-.386-1.005M62.545,3.7a1.407,1.407,0,0,0-.7,1.5c.044.252-.011.518.016.775.024.241.1.478.168.816.862-1.006.641-2.04.521-3.093M35.882,12.511l-.136.012a4.364,4.364,0,0,0,.144.791c.227.607.5,1.2.744,1.8a1.148,1.148,0,0,0,.837.776,15.317,15.317,0,0,0-1.589-3.376M60.7,4.7a1.614,1.614,0,0,0-1.288,1.128,4.018,4.018,0,0,1,.893.2,4.593,4.593,0,0,1,.781.612A8.6,8.6,0,0,0,60.7,4.7M67.85,2.825l-1.115.216a.611.611,0,0,0,.134.6,2.415,2.415,0,0,1,.361.609,5.609,5.609,0,0,1,.2.53,2.7,2.7,0,0,0,.42-1.955M87.487,32.053c1.329-.512,3.108-2.482,3.151-3.308-.491.57-.968,1.167-1.494,1.719s-1.1,1.061-1.657,1.589m-7.738-7.614a2.35,2.35,0,0,0,.049,1.626,6.411,6.411,0,0,0,1.067-2.452c-.1.031-.158.031-.169.053-.122.244-.239.492-.373.773Zm-47.5,9.468.1-.041c0-.053.02-.117,0-.158-.368-.663-.735-1.327-1.114-1.984-.24-.417-.5-.823-.749-1.233-.122-.2-.252-.375-.493-.166.383.623.744,1.225,1.119,1.817s.762,1.177,1.144,1.764M23.965,21.479c.526.038.658-.123.471-.53-.029-.063-.121-.137-.106-.176.156-.412-.218-.675-.286-1.025-.035-.182-.217-.336-.356-.536l-.382.655.749.584c-.028.321-.057.655-.09,1.028M59.031,8.05c-.023.3-.049.655-.083,1.1.188-.057.376-.061.454-.155s.037-.272.015-.408c-.015-.1-.121-.184-.128-.279a2.605,2.605,0,0,0-.641-1.471l-.357.629.74.586m4.1-4.764.2,1.221h.678a2.1,2.1,0,0,0,0-1.149l-.884-.073M36.26,14.869c-.124-.308-.265-.608-.366-.92-.19-.588-.5-1.168-.187-1.814.019-.039-.064-.127-.159-.3a2.372,2.372,0,0,0-.07.373c.02.628.04,1.255.076,1.882a2.486,2.486,0,0,0,.117.535c.083.288.275.368.59.246m64.716,16.205a5.091,5.091,0,0,0,1.053-1.97,11.775,11.775,0,0,0-1.4,1.643l.343.327M68.315,4.15a2.029,2.029,0,0,0,.423-1.572l-.71.286.287,1.287M49.034,28.639a5.555,5.555,0,0,0-.492-2.115c-.018-.045-.14-.048-.276-.089a10.621,10.621,0,0,0,.768,2.2m-17.6-9.15.14.008c.038-.111.142-.255.105-.329a7.524,7.524,0,0,0-.934-1.476,2.81,2.81,0,0,0,.688,1.8m-1.231-.2a2.081,2.081,0,0,0-.2-1.437c-.1-.2-.232-.276-.475-.059.31.436.046,1.123.678,1.5M112.277,30.72c-.409.249-.17.7-.342,1.032s-.3.716-.445,1.075l.134.046c.661-.574.543-1.4.652-2.153M66.542,3.133c-.443.04-.437.041-.481.289a1.733,1.733,0,0,0,.386,1.306c.036-.6.064-1.069.1-1.6M48.089,29.125a2.271,2.271,0,0,0-.541-2.25c.14.428.28.78.367,1.146s.118.736.174,1.1M81.171,13.956a3.336,3.336,0,0,0,.423-2.329l-.423,2.329m19.97,15.668-.081-.088-1.795,1.679.084.093a7.485,7.485,0,0,0,1.792-1.684m2.846-3.585c-.472.206-.593.361-.5.585s.259.215.749-.071l-.254-.514M74.117,31.39a4.454,4.454,0,0,0,.871-1.483c-.335.323-.639.667-.937,1.017-.124.145-.141.3.066.467M85.411,13.166c.33-.022.479-.18.46-.409-.015-.175-.06-.344-.294-.315-.217.027-.435.284-.373.472.037.114.161.2.207.252M47.627,29.246a1.341,1.341,0,0,0-.553-1.292c.2.943.2.958.553,1.292m48.035-6.825.1.1a2.884,2.884,0,0,0,.653-.561c.146-.229.5-.39.391-.839l-1.149,1.3m-5.5-8.3c-.063-.049-.165-.191-.287-.21-.211-.033-.475.259-.452.46a.3.3,0,0,0,.341.279c.236-.005.4-.177.4-.529M19.8,37.66A5.808,5.808,0,0,0,20.949,39.1,3.223,3.223,0,0,0,19.8,37.66M52.99,24.992l-.154,0v2.278c-.028-.762.258-1.517.154-2.28m54.844,11.735c.286.021.482-.143.455-.352a.4.4,0,0,0-.187-.281c-.17-.068-.45.193-.422.391.014.1.117.187.154.242M31.31,30.759a2.075,2.075,0,0,0,1.136,1.357L31.31,30.759m79.168,3.707a1.568,1.568,0,0,0,.712-1.071c-.288.324-.654.591-.712,1.071m-10.836-2.96c-.638.16-.809.286-.98.68.482-.07.592-.143.98-.68m-41-24.92-.132-.393c-.532.058-.562.111-.4.608l.534-.216M31.013,16.629l-.386.256a1.377,1.377,0,0,0,.571.7c-.055-.286-.11-.573-.184-.957M49.177,31.936l.137-.012a2.22,2.22,0,0,0-.137-1.261Zm61.938-6.449a.508.508,0,0,0-.458-.521c0,.246,0,.463,0,.68,0,.024.051.046.1.086l.356-.245m-6.863,2.791c.343-.244.689-.484.746-.946-.455.146-.58.567-.746.946M23.516,18.486l-.421.3c.076.086.137.205.233.249a1.131,1.131,0,0,0,.391.009l-.2-.553M87.752,9.739c-.056-.257-.071-.558-.464-.489-.045.374.2.448.464.489m14.559,18.437.106.062a1.232,1.232,0,0,0,.489-.966l-.594.9m3.106-3.585a3.616,3.616,0,0,0,.307-.4c.012-.02-.141-.177-.161-.166a3.187,3.187,0,0,0-.375.264l.228.3M66.651,5.171c.419-.1.424-.147.126-.889-.047.33-.082.579-.126.889m20.321,5.6a.3.3,0,0,0,.507-.161.236.236,0,0,0-.094-.211c-.21-.061-.341.062-.419.247-.012.029,0,.07.006.126m-8.19,20.579a2.608,2.608,0,0,0-.781.915,1.32,1.32,0,0,0,.781-.915M32.161,18.607l.138-.039c.077-.319-.134-.511-.411-.678l.273.716M88.1,21.069a.756.756,0,0,0,.435-.713c-.333.155-.386.39-.435.713M55.125,6.842c-.17-.109-.27-.221-.336-.2a.483.483,0,0,0-.237.23c-.015.026.1.183.141.177a1.955,1.955,0,0,0,.431-.2M47.981,30.505q.068.477.137.954a.823.823,0,0,0-.137-.954M77.935,14.843c.295-.369.295-.369.2-.783l-.2.783M68.687,1.185c-.085.129-.165.206-.181.295-.008.044.1.11.16.166a.831.831,0,0,0,.184-.228c.014-.043-.083-.123-.162-.232m41.289,33c-.145-.075-.24-.159-.28-.138a1.291,1.291,0,0,0-.258.234c.065.05.147.154.191.139a1.625,1.625,0,0,0,.347-.235m-58.5-7.012.188-.025-.114-.692-.115.015q.02.351.041.7m43.195-2.292c-.263-.072-.345.063-.411.28.285.1.373-.026.411-.28m18.864,4.442-.149.433c.279-.1.353-.21.149-.433M40.89,5.5c-.215,0-.306.109-.231.315a.2.2,0,0,0,.183.048c.164-.088.175-.219.048-.363M64.456,1.55c-.118-.051-.216-.125-.254-.1a.429.429,0,0,0-.158.227c-.008.024.142.14.17.125a1.243,1.243,0,0,0,.243-.25M67.276.3c-.064.117-.126.186-.131.259,0,.041.088.089.136.134.045-.063.113-.121.127-.19.008-.044-.064-.1-.132-.2m-39.1,17.915-.107.1.4.371c-.039-.216-.056-.441-.288-.475M65.058.69c.006-.062.013-.124.019-.186-.156-.082-.333.054-.507.152l.488.034M19.534,38.546l.047-.051-.352-.349-.066.071.371.33M109.781,25.9l-.093-.131a2.17,2.17,0,0,0-.227.175c-.009.009.047.086.072.131l.248-.175M16.337,43.8l.078-.084-.329-.2-.038.063.289.222m7.886-14.718.085-.055-.14-.348-.059.022.114.381M36.459,16.08l-.126.1.294.45.112-.072-.28-.475m43.949,9.689-.143-.078-.221.431.133.069.231-.421m16.657-9.408-.036.107.221.028c0-.026.013-.073.006-.076-.062-.024-.127-.041-.191-.059M19.287,25.415l.037-.148-.273-.042-.025.093.261.1M67.8.788c.063-.128.107-.217.147-.309,0,0-.065-.049-.09-.042C67.7.48,67.641.567,67.8.788m23,27.574-.029.129.223.059a.573.573,0,0,0,.023-.126,1.6,1.6,0,0,0-.217-.061M3.394,41.619H3.3c-.019.032-.059.072-.051.093a.766.766,0,0,0,.1.147l.052-.239M81.132,14.386l-.111-.026-.074.3.113.027.073-.3M79.286,4.651l-.084.064a.731.731,0,0,0,.088.1.172.172,0,0,0,.068-.052.71.71,0,0,0-.072-.113M64,2.923c.072.051.134.11.146.1a.373.373,0,0,0,.112-.144c.005-.012-.077-.089-.1-.081A.625.625,0,0,0,64,2.923M11.819,39.8l.046-.025-.109-.213-.06.034.123.2m97.663-4.165.106.071.152-.266-.072-.044-.186.24" transform="translate(-1.296 0)" fill="#fe1a58"/>
        <path id="Path_16270" data-name="Path 16270" d="M68.962,132.928c.2-.373.522-.363.852-.333.593.054,1.185.116,1.779.155a.6.6,0,0,1,.619.449,1.363,1.363,0,0,0,.191.294l.692-.349c.051.236.1.429.135.625q.212,1.095.421,2.191c.054.282.12.568-.267.679.193.345.356.63.512.919a1.731,1.731,0,0,1,.141,1.3,1.177,1.177,0,0,0-.013.6c.354,1.172.734,2.336,1.114,3.531l.5-.084a4.24,4.24,0,0,0-.076-1.571c-.25-1.219-.535-2.431-.78-3.651a6.092,6.092,0,0,1-.135-1.328,3.2,3.2,0,0,0-.193-1.143,3.1,3.1,0,0,1-.1-1.973c.161-.521.423-.909,1.041-.905a2.55,2.55,0,0,0,.4-.053c.3.211-.013.834.631.778.025-.484.048-.942.073-1.431a4.521,4.521,0,0,1,1.568.107,1.145,1.145,0,0,1,.54.454c.236.3.427.643.655,1l.459-.236c-.055-.405-.108-.787-.174-1.272l1.531.674.454-.983c.329.46.729.385,1.162.273.737-.192,1.491-.323,2.224-.529a.771.771,0,0,1,.845.258,3.137,3.137,0,0,1,.884,2.873,9.249,9.249,0,0,0,.035,2.66c.03.391.3.779.356,1.205a8.976,8.976,0,0,0,.314,1.519v-4.857l.049,0c.107,1.83.209,3.662.324,5.492a10.61,10.61,0,0,0,1.287,4.3c.015.028.056.043.109.08.1-.41.2-.808.28-1.211a.6.6,0,0,0-.1-.312c-.14-.3-.292-.6-.432-.907a11.1,11.1,0,0,1-1.086-4.91c.016-.93.065-1.86.074-2.79a10.514,10.514,0,0,0-.093-1.1c-.071-.741-.151-1.481-.21-2.223a.389.389,0,0,1,.124-.319.4.4,0,0,1,.338.082c.415.345.815.708,1.22,1.065l.375.332c.231-.125.317-.269.167-.5a1.822,1.822,0,0,1-.158-1.558c.121-.445.231-.893.363-1.4l2.609,2.093.4-1.216L94.577,131c.277-.069.308-.208.22-.427-.236-.587-.452-1.181-.687-1.769-.086-.216-.122-.4.19-.5l1.416,1.552c.73-.4.225-1.076.44-1.6.572.118.893.806,1.589.723l.09-.592.556-.225a2.358,2.358,0,0,1,1.359-2.16c.927-.582,1.892-1.1,2.877-1.672l.9,1.148.1-.057c-.05-.367-.1-.735-.151-1.1a.868.868,0,0,1,1.027.061c.369.283.733.571,1.1.858a.828.828,0,0,0,1.107.107,1.011,1.011,0,0,1,1.207.06c.257.183.488.4.732.6.186.153.374.3.577.466.32-.219.518-.712.961-.56a4.911,4.911,0,0,1,.985.623l-.064-.516a3.1,3.1,0,0,1,1.681.358,7.261,7.261,0,0,1,1.926,1.417,2.063,2.063,0,0,0,1.11.586c.6.1,1.194.249,1.8.379.244-.611.755-.554,1.207-.6a.867.867,0,0,1,.491.08,10.656,10.656,0,0,0,2.394.673,3.535,3.535,0,0,0,.932.105.615.615,0,0,1,.578.352q1.374,2.416,2.763,4.823a3.456,3.456,0,0,1,.333.7,5.346,5.346,0,0,1-.97-1.348,15.046,15.046,0,0,0-.919-1.392,5.383,5.383,0,0,0,.657,1.8c.388.59.807,1.161,1.237,1.721a.923.923,0,0,0,.455.274.976.976,0,0,1,.758.734,2.64,2.64,0,0,0,.163.35c.034.084.095.194.068.261a2.732,2.732,0,0,1-.659,1.2,12.247,12.247,0,0,0-1.488,1.329c-.366.429-.842.42-1.288.553-.085.025-.239-.086-.321-.172a4.512,4.512,0,0,1-.409-.527c-.092-.131-.179-.241-.384-.141v.411c-.508.309-.551.631-.145,1.053.1.1.186.208.347.39a1.784,1.784,0,0,1-1.326-.579q-.768-.993-1.506-2.01a1.177,1.177,0,0,1-.211-.956.723.723,0,0,0-.164-.61,12.213,12.213,0,0,1-.667-1.15c-.264-.49-.514-.989-.77-1.483-.355.069-.355.069-.27.714a12.82,12.82,0,0,0-.664-1.535l-.125.04a5.357,5.357,0,0,0,.183,1.11c.448,1.161.938,2.305,1.431,3.448a2.738,2.738,0,0,0,.392.525,2.024,2.024,0,0,1,.267.351q.754,1.649,1.487,3.307a1.616,1.616,0,0,1,.072.351c-.536.318-1-.064-1.553-.059-.069.252-.134.514-.212.772a1.082,1.082,0,0,1-.185.45c-.343.335-.717.638-1.095.966l-.729-.633-.215,1.226a.967.967,0,0,1-.928-.492,11.583,11.583,0,0,1-.54-1.037,2.16,2.16,0,0,0-.727-.959,3.013,3.013,0,0,0,.1.34,8.31,8.31,0,0,1,.657,1.464,3.731,3.731,0,0,1-.215,2.561,2.907,2.907,0,0,1-1.247,1.163c-.31.176-.634.326-.981.5l.319.468a1.2,1.2,0,0,1-.743.681,4.007,4.007,0,0,0-1.231.718,5.17,5.17,0,0,1-1.327.692c-.107.047-.275-.047-.4-.072a.579.579,0,0,0-.094.1c-.11.22-.071.513-.4.622a1.594,1.594,0,0,1-1.084.1c-.139-.049-.28-.093-.443-.147l-.956,1.615-.776-.305c-.3.313-.3.313-.122.889l-.764.472c-.257-.1-.487-.566-.91-.124l.548.58-.412.329c-.327-.059-.523-.544-.945-.192l.28.569a2.4,2.4,0,0,1-.546.232,8.743,8.743,0,0,0-1.555.57,6.668,6.668,0,0,1-3.208.32c-.409.105-.758.2-1.111.283a4.551,4.551,0,0,1-.662.095.635.635,0,0,0-.506.287,2.739,2.739,0,0,1-1.624,1.013,3.848,3.848,0,0,1-.907-.016,1,1,0,0,1-.285.139c-.65.153-1.3.3-1.959.426a3.44,3.44,0,0,1-1.05.091,3.9,3.9,0,0,0-1.794.3,1.45,1.45,0,0,1-.424.124.419.419,0,0,1-.3-.161c-.213-.3-.265-.3-.45.02a1.168,1.168,0,0,1-.641.615,1.466,1.466,0,0,1-1.462-.2.6.6,0,0,0-.78.005l.368.526c-.243.133-.421.105-.532-.16s-.21-.556-.34-.823a5.016,5.016,0,0,0-.338-.528,8.022,8.022,0,0,0-1.158.849,2.8,2.8,0,0,0-.349.931.456.456,0,0,0-.225.1,1.163,1.163,0,0,1-1.293.153.929.929,0,0,0-.987.153,1.621,1.621,0,0,1-.234.152c-.553.315-.68.25-.771-.444-.544.032-1.1.06-1.646.1-.7.051-1.41.1-2.114.173a9.142,9.142,0,0,0-1.095.184c-.423.1-.524.048-.626-.377-.091-.379-.091-.379-.473-.528-.194.3,0,.605,0,.932a.783.783,0,0,1-.647-.388.561.561,0,0,0-.777-.169,1.824,1.824,0,0,1-1.9-.136c-.361-.226-.736-.43-1.086-.634-.065.027-.119.032-.129.056-.226.545-.692.609-1.2.61-.745,0-1.489.019-2.234.012a3.747,3.747,0,0,1-1.848-.565,4.754,4.754,0,0,0-2.162-.829c-.049,0-.1-.052-.223-.126v-2.927l-.136-.006c-.25.425-.04.907-.105,1.357-.068.47-.053.951-.074,1.441-.788-.344-.984-.969-.754-2.314-.377-.134-.45-.122-.527.182-.072.287-.092.587-.136.881-.033.218-.068.436-.108.689-.7-.19-1.362-.379-2.026-.541a.477.477,0,0,1-.412-.558c.012-.278.012-.556.006-.834a1.776,1.776,0,0,0-.058-.3H56.5q-.03.672-.06,1.345a1.169,1.169,0,0,1-.993-1.255c.012-.969,0-1.939-.038-2.908a14.515,14.515,0,0,0-.127,3.557l-2.225-.417c-.12-.34.034-.846-.4-1.19l-.3.207c-.036-.034-.1-.065-.11-.107a5.65,5.65,0,0,1-.153-.814c-.041-.59-.073-1.182-.065-1.773a6.823,6.823,0,0,1,.155-.877c.031-.212.081-.444-.218-.625a4.456,4.456,0,0,0-.556,2.06c-.079.719-.094,1.444-.141,2.228a1.863,1.863,0,0,1-1.035-.567c-.141-.109.012-.369.318-.55-.254-.314-.365-.787-.969-.7-.008.161-.017.316-.024.447l-.912.273c-.258-.324-.543-.652-.788-1.007-.094-.136-.073-.345-.146-.5-.166-.35-.352-.69-.541-1.029a3.353,3.353,0,0,1-.269-1.838c.01-.253-.015-.507-.027-.843l-.622.356c.079.141.2.262.21.393.055.609.092,1.221.107,1.833,0,.137-.109.276-.179.441l.282.143.144-.252,1.111,2.082-.953-.5c.277-.646-.363-.737-.637-1.138l-.183.325a3.441,3.441,0,0,1-.311-.206c-.1-.082-.17-.226-.281-.267-.659-.246-.966-.839-1.355-1.348a2.314,2.314,0,0,1-.2-.441c.032.014.016,0,0,0a6.22,6.22,0,0,1-2.223-.692c-1.083-.47-2.044-1.125-3.067-1.682a1.652,1.652,0,0,1-.7-.886,3.811,3.811,0,0,0-1.522-1.8c-.256-.176-.485-.4-.753-.55s-.624.031-.887-.213c-.049-.045-.177.006-.263-.013-.184-.039-.365-.1-.6-.158.373-.627.878-1.1.912-1.849-.289.329-.526.611-.776.882-.37.4-.391.4-.983.139a6.258,6.258,0,0,0,.884-2.216l-.721,1.115a6.069,6.069,0,0,0-.764-.621c-.4-.232-.418-.544-.33-.941.17-.769.31-1.545.467-2.343-.291,0-.308.2-.346.376-.14.635-.277,1.27-.419,1.9-.068.3-.144.607-.236.992a.671.671,0,0,0-.82-.322c-.444.084-.573-.113-.389-.533.222-.507.484-1,.688-1.512a2.972,2.972,0,0,0,.175-.858.549.549,0,0,1,.391-.55c.546-.146,1.1-.261,1.656-.37a.85.85,0,0,0,.63-.3.375.375,0,0,1,.5-.124.886.886,0,0,0,.889-.005.723.723,0,0,1,.329-.025c.328,0,.656,0,1.036,0-.02.161-.041.33-.062.5l.064.016a3.926,3.926,0,0,1,.194-.49.524.524,0,0,1,.834-.2,1.131,1.131,0,0,1,.575.887,4.335,4.335,0,0,1,0,1.489,1.957,1.957,0,0,0,.012.667c.021.138.089.354.183.382.436.131.344.468.35.77s0,.588.032.883a16.818,16.818,0,0,0,.444-4.284c-.005-.149-.008-.3-.005-.447a1.149,1.149,0,0,1,.6-1.111,1.356,1.356,0,0,0,.573-.579,2.127,2.127,0,0,1,1.283-.924c.246-.083.495-.16.733-.262a2.307,2.307,0,0,1,1.427-.065.533.533,0,0,0,.635-.209,1.218,1.218,0,0,1,1.064-.49c.236-.022.465-.108.7-.133.336-.036.461-.263.563-.536a1.442,1.442,0,0,1,.734-.874.682.682,0,0,1,.473-.084c.556.271,1.087-.082,1.635-.031.2.018.423-.2.619-.341a2.058,2.058,0,0,1,1.233-.451,1.017,1.017,0,0,0,.413-.139c.217-.1.427-.221.7-.367l-.061.527a.406.406,0,0,0,.154,0,11.426,11.426,0,0,1,6.707-.755,1.217,1.217,0,0,0,.949-.141l1.024.429c-.167.19-.328.361-.477.543a5.011,5.011,0,0,0-.94,2.185,16.328,16.328,0,0,0-.329,1.868c-.025.25-.308.28-.288.533a3.193,3.193,0,0,1-.053.777c-.046.271-.137.534-.2.8a.491.491,0,0,0-.011.273,3.1,3.1,0,0,1,0,1.483c-.027.37-.191.777.291,1.032.1.051.08.314.117.489-.25.033-.441-.247-.643.071.137.443.583.66.882,1s.591.636.887.954l.1-.058a1.452,1.452,0,0,0-.095-.333c-.109-.194-.249-.371-.364-.562a.574.574,0,0,1-.12-.3c.036-.36.1-.718.178-1.2l.165.914.095-.018c-.051-.618-.1-1.237-.155-1.855s-.136-1.249-.206-1.892c.211-.026.345-.12.316-.348a1.433,1.433,0,0,1,.2-.854c.134-.258.3-.539-.083-.775-.061-.038-.042-.273,0-.4.342-1.042.7-2.079,1.05-3.117.1-.3.215-.595.316-.894.091-.27.276-.419.55-.342.592.165,1.268.149,1.673.746.218.323.569.19.9.219l.142.465.474-.149c.305.137.261.384.259.628,0,.684.006,1.367.011,2.051l.135.016.36-1.563.287.211.235-.862.14.023a19.157,19.157,0,0,0-.13,2.465l.13.015.6-3.692c.619-.071.761.041,1.02.768m24.627,8.451c.087-.421.083-.436-.236-.733l.24.731.42.727c-.023-.41-.094-.655-.423-.725m-17.735-3.486a1.188,1.188,0,0,0-.2-.955l.2.947.308,1.163c-.023-.41.027-.844-.314-1.155m-26.429,9c-.187-.172-.187-.172-.4.03l.413-.046c-.157.164-.439.251-.393.587.445-.207.445-.207.378-.571m53.139-12.4c-.282-.273-.452-.655-.811-.859a4.612,4.612,0,0,0,.615.891c.018.022.117-.025.179-.04-.2.313.15.5.183.757-.519-.471-.724-.487-1.341-.1.08.122.156.248.241.366.476.661.951,1.322,1.433,1.978a1.318,1.318,0,0,0,.365.4c.5.271,1.026.506,1.554.761l.539-.5c-.046-.084-.06-.149-.1-.177a.848.848,0,0,1-.366-.8,1.343,1.343,0,0,0-.29-.695c-.186-.275-.436-.505-.641-.769a8.7,8.7,0,0,1-.5-.73,5.645,5.645,0,0,0-.382-.67c-.645-.766-1.311-1.515-1.973-2.267a1.863,1.863,0,0,0-.237-.2l1.533,2.65M44.016,146.369c.15-.324.15-.324-.182-.417l.193.408c.026.067.05.192.079.193.364.018.457.326.577.52.212.066.515.123.513.164-.017.331.274.2.4.274s.317.029.539.039l.227,1.178c.018-.295.018-.571.06-.84.012-.079.134-.171.223-.2.059-.017.177.054.22.118a1.764,1.764,0,0,1,.143.355h.982l.019-.071-.679-.266c0-.183,0-.366,0-.55.014-.553.048-1.106.044-1.659-.009-1.256-.031-2.512-.059-3.768a7.882,7.882,0,0,0-.095-.791l-.136-.02-.719,1.2-.194-.122-.6.429.224.4a2.006,2.006,0,0,0-.135,1.484c.035.156.119.313-.089.429l-.2-.725-.107,0-.234.471c-.18-.317-.18-.317-.1-.579.148-.511.148-.511-.344-.859l-.312.729a.8.8,0,0,1,.1.137c.224.48.473.951.655,1.447.15.408-.085.709-.533.785-.164.028-.327.064-.487.095m4.752-3.451-.7.683a3.525,3.525,0,0,0,.6.357,2.554,2.554,0,0,0,.743.127,1.368,1.368,0,0,0,.425-.12c.47,1.138.808,2.28,1.251,3.3H52a3.951,3.951,0,0,0-.077.869c.033.244-.185.541.141.8.068-.341.145-.629.178-.922s.27-.548.115-.874c-.025-.053.106-.232.2-.282.26-.135.318-.316.145-.532a.563.563,0,0,1-.017-.621c.065-.173.176-.327.253-.5a.835.835,0,0,0-.126-1.01.968.968,0,0,1-.252-.48,1.119,1.119,0,0,0-.6-.818,1.218,1.218,0,0,1-.484-.647c-.148-.355-.323-.7-.49-1.044-.055-.115-.171-.225-.172-.338a14.15,14.15,0,0,1,.044-1.756c.1-.839.129-.835-.6-1.237a5.774,5.774,0,0,0-.052-.716c-.039-.206.248-.452-.092-.655-.055.1-.128.171-.137.252a2.79,2.79,0,0,1-.463,1.057c-.224.4-.465.8-.652,1.215a5,5,0,0,0-.218.855,1.693,1.693,0,0,1,.146,1.751c-.171.364-.49.823-.015,1.281m13.154-4.437c0,.519,0,1,0,1.48a2,2,0,0,0,.27,1.369,8.588,8.588,0,0,0,.16-1.3c.026-.592.015-1.185.042-1.776a.88.88,0,0,1,.29-.728,14.879,14.879,0,0,1,.345,2.821.443.443,0,0,0,.217.429c-.046-.951-.1-1.893-.231-2.825a8.051,8.051,0,0,1-.061-2.65,6.6,6.6,0,0,0,.016-1.33,1.5,1.5,0,0,0-.159-.379,5.354,5.354,0,0,0-.353.663c-.238.683-.476,1.369-.675,2.064a13.8,13.8,0,0,0-.371,1.68c-.061.4.017.442.508.486m56.868,4c.046-.194.139-.356.107-.488-.159-.666-.317-1.336-.54-1.981-.272-.788-.609-1.553-.918-2.328-.35-.879-.7-1.759-1.051-2.636a1.427,1.427,0,0,0-.677-.757,35.685,35.685,0,0,0,2.468,7.012l-.433-.243c.256.533.371,1.14,1.044,1.422m-5.087-.5c-.034-.474-.043-.915-.1-1.351-.1-.715-.216-1.427-.341-2.137a11.7,11.7,0,0,0-1.272-4.009,2.045,2.045,0,0,0-.369-.367l-.114.063a5.073,5.073,0,0,0,.36,1.7c.274.769.594,1.528.789,2.317.276,1.116.456,2.257.675,3.387.035.179.024.386.374.4m7.93-9.542c-.034.178-.07.245-.05.28.405.7.771,1.433,1.24,2.09a9.692,9.692,0,0,0,2.332,2.432,1.494,1.494,0,0,0,.459,1.423l.574-.761a34.876,34.876,0,0,1-2.478-2.457c-.75-.9-1.342-1.927-2.077-3.007M60.384,144.782c.333.595.676,1.1.917,1.656.5,1.155.955,2.333,1.425,3.5a1.069,1.069,0,0,1,.04.212l.157-.124a2.084,2.084,0,0,0-.05-.249c-.13-.406-.257-.813-.4-1.215-.221-.629-.417-1.27-.69-1.876a19.639,19.639,0,0,1-.737-2c-.048-.149-.1-.3-.183-.558l-.481.655m28.8,1.569.084-.065c-.513-1.16-1.1-2.3-1.52-3.488s-.687-2.454-.99-3.575a9.432,9.432,0,0,0,.861,4.154c.179.447.379.886.586,1.321.239.5.492,1,.752,1.494.038.073.149.107.227.159m-12.654,3.72c-.1.683.1,1.358-.009,2.077l.253-.126c.2.987.388,1.969.593,2.948a12.141,12.141,0,0,0,.314,1.239,4.016,4.016,0,0,0,.338.642c-.383-2.3-1.059-4.5-1.49-6.78M47.291,134.35a8.18,8.18,0,0,0-.651,2.5c0,.037.01.074.01.11,0,.218,0,.437-.009.654-.016.312-.043.624-.066.935a10.029,10.029,0,0,1-.1,1.194c-.071.358-.087.395.365.614.017-.52.038-1.014.048-1.508a20.178,20.178,0,0,1,.131-2.925c.087-.524.182-1.047.273-1.571M72.476,137a6.882,6.882,0,0,0,.568,4.485c-.04-.508-.149-1.006-.226-1.509s-.126-.99-.175-1.486a3.579,3.579,0,0,0-.167-1.49M44.109,147.371l-.558-.451a2.089,2.089,0,0,0,.388,2.039c.009.012.062-.008.124-.018-.008-.155-.015-.312-.022-.456.229-.14.586-.056.647-.476a3.116,3.116,0,0,1-.3.11,2.144,2.144,0,0,1-.25.036c-.322-.421-.322-.421-.029-.784m41.465-3.8-.125-.02a12.816,12.816,0,0,0-.116,2.264,1.777,1.777,0,0,0,.241,1.262Zm3.552,1.377-.161.1a21.536,21.536,0,0,0,1.838,2.986l.122-.074-1.8-3.011m-46.4.078c-.267.006-.415-.317-.744-.131.41.276.232.624.159.933.435.332.435.332.742.049-.134-.245-.459-.465-.157-.85m72.937-7.478-.146.011a2.706,2.706,0,0,0,.158.79c.3.543.654,1.05.987,1.572l.1-.058-1.1-2.315m-.752-2.957a11.141,11.141,0,0,0,1.023,2.8,7.219,7.219,0,0,0-1.023-2.8m-3.774,1.04c-.1.156-.19.231-.182.293a10.243,10.243,0,0,0,.59,2.074l.142-.037-.55-2.329m-.627-3.56c.086.21.177.419.256.632s.138.42.211.629c.125.354.126.353.406.46-.217-1.041-.281-1.181-.874-1.72M57.652,158.24l.188.02c.029-.791.059-1.583.092-2.482a5.257,5.257,0,0,0-.28,2.463M35.074,138.7l-.15-.058a9.146,9.146,0,0,0-.341,1.014c-.077.355-.456.635-.243,1.063a8.266,8.266,0,0,0,.733-2.019m3.62,5.829-.317,1.176.113.044.313-.606.526.206-.1-.55-.541-.269m48.1-.422a2.536,2.536,0,0,0,1.028,1.734c-.435-.577-.525-1.24-1.028-1.734M40.5,142.632l.152.094c.107-.095.3-.189.3-.284a.55.55,0,0,0-.411-.518c-.016.27-.029.489-.042.708m36.032,4.989a1.157,1.157,0,0,0,.056,1.241,2.768,2.768,0,0,0-.056-1.241M120.851,130.6a1.468,1.468,0,0,0,.533,1.229,2.151,2.151,0,0,0-.533-1.229m-21.178.478a2.239,2.239,0,0,0,1.15,1.366l-1.15-1.366M38.028,144.2c-.457,1.023-.527,1.33-.348,1.747a6.4,6.4,0,0,0,.348-1.747m4.409-4.035.156.634c.527-.095.1-.518.294-.711.006-.006-.031-.053-.061-.1l-.389.181m69.5-.775a1.028,1.028,0,0,0-.319-1.1,1.837,1.837,0,0,0,.319,1.1M60,154.364c.311.4.354.411.934.24-.3-.17-.52-.429-.934-.24M59.92,147c-.151-.124-.274-.288-.345-.268a.4.4,0,0,0-.246.293c0,.091.17.213.287.249.055.017.161-.14.3-.273m-17.108-2.371.4.535.438-.047a.83.83,0,0,0-.838-.488M41.2,148.56a.707.707,0,0,1,.092-.644l-.688.137.6.508m8.445-1.992.109.008.3-.535-.072-.1c-.139.047-.365.061-.4.147-.05.134.032.318.058.48M39.217,143.2l-.2,1.3a1.214,1.214,0,0,0,.2-1.3m37.366,11.211h.08v-1.885h-.08Zm-35.292-9.153c-.094-.1-.164-.225-.226-.221s-.208.131-.2.186c.015.1.119.179.186.267l.239-.232m30.257-7.777a1.119,1.119,0,0,0-.05,1.089l.05-1.089M75.9,153.2a1.126,1.126,0,0,0,.11,1.276c-.039-.452-.074-.864-.11-1.276m-26.834-8.077-.137-.139-.322.274a1.486,1.486,0,0,0,.135.141c.113-.085.218-.182.324-.277M73.3,138.682l.1-.007q-.055-.647-.11-1.294l-.076.005q.044.647.088,1.295m-2.117-4.96c.086-.183.173-.288.166-.384-.006-.072-.169-.2-.2-.187-.1.046-.216.152-.221.241s.128.172.259.33M39.819,146.29c.246-.3.3-.521,0-.827Zm.637-3.032c.392.041.392.041.508-.318l-.508.318m.775-3.544a.434.434,0,0,0,.347.52l.114-.116-.461-.4m-.2-1.791c-.264.176-.264.176-.046.46a2.988,2.988,0,0,0,.087-.316c.007-.043-.026-.092-.041-.143m.818,10.766c.182.33.183.328.5.243l-.5-.243m72.822-6.737c-.071.346.124.477.286.7.161-.379-.094-.48-.286-.7m-66.058,5.49-.137.02c-.08.142-.1.27.18.409-.019-.192-.031-.31-.043-.428m-12.236-7.579.086.02.149-.639-.071-.016-.164.635m10.733-1.023.128,0v-.4h-.1q-.015.2-.03.408m-7.167,4.144.194-.035-.092-.369-.153.03.05.374m.463,3.626c.2-.171.143-.316.02-.459-.012-.014-.06,0-.1.008l.081.451m7.01-9.15-.148-.019q-.024.221-.047.442l.114.015q.041-.219.081-.438m47.149,6.311.12-.051-.132-.4-.111.035.123.42M39.677,141.1l.126.017c-.023-.149.158-.3-.1-.529l-.023.512m-.061,3.467.1-.025-.079-.347-.115.031.1.341m8.746-.278c-.053-.084-.069-.142-.1-.158a.153.153,0,0,0-.137.013.147.147,0,0,0,.005.125,1.09,1.09,0,0,0,.236.02m-10.854,2.327a1.179,1.179,0,0,0,.087-.278.689.689,0,0,0-.084-.208c-.2.148-.216.265,0,.486m4.193-.733-.131-.06c-.032.089-.067.176-.094.266a.342.342,0,0,0,.088.043c.049-.081.093-.165.137-.249m-.042-7.364c-.071.064-.117.095-.113.105a1.991,1.991,0,0,0,.1.2c0-.085.008-.17.014-.3m44.87,5.078.066.022c.035-.056.093-.109.1-.168a.614.614,0,0,0-.052-.207l-.09.013q-.012.17-.024.34m-1.057-.569.126.033c.043-.112.09-.223.123-.338a.922.922,0,0,0-.17-.1l-.08.4m-44.5-2.4-.046-.093-.307.105.027.082.327-.095m2.2,7.2c-.064.067-.125.1-.122.135a.155.155,0,0,0,.092.109c.035.01.086-.032.129-.051l-.1-.193m-1.111,1.61a.826.826,0,0,0-.175-.133c-.019-.008-.1.076-.1.088a.391.391,0,0,0,.122.145c.014.01.074-.049.148-.1m22.309-4.092v-.087h-.258v.087Zm-15.427,8.847.048-.08-.246-.139-.038.069.236.15M41.537,143c-.073.095-.117.134-.11.145a1.012,1.012,0,0,0,.11.134Zm52.717-.11.093-.05-.118-.252-.086.036.11.266M41,141.6c-.061-.048-.1-.1-.137-.1s-.068.055-.1.086c.036.034.069.086.11.1s.073-.042.13-.079m10.513-.861-.2-.162c-.023.038-.07.081-.062.111a.155.155,0,0,0,.1.094c.042.009.094-.022.165-.042m-10.438-.643a1.275,1.275,0,0,0-.224-.061c-.028,0-.082.033-.082.05a.47.47,0,0,0,.041.134l.265-.123m-1.252,2c.02-.021.054-.043.054-.064s-.035-.044-.054-.065c-.019.021-.054.043-.054.064s.035.044.054.065m12.234.28.12.072c.008-.029.029-.063.021-.086a.1.1,0,0,0-.07-.057c-.017,0-.04.038-.071.071m-2.109,2.662c-.043.055-.1.1-.093.126s.059.082.092.123c.036-.032.1-.065.1-.1s-.052-.084-.1-.151m-8.1-5.644-.117-.013-.017.239.076.009.058-.234m-7.523,1.545-.13-.063-.074.3.08.028.125-.265m5.617.778.1-.042c-.015-.028-.036-.083-.044-.081a.592.592,0,0,0-.117.053l.062.07m5.861-.081-.085.035.063.223.131-.057-.109-.2m61.162,11.855a.114.114,0,0,0-.058-.219l.058.219" transform="translate(-21.27 -86.916)" fill="#fe1a58"/>
        <path id="Path_16271" data-name="Path 16271" d="M350.565,145.3c-.563-.062-.667-.758-1.256-.67l.106.621-.691-.28c.112.276-.451.381-.2.724.165.222.371.414.611.676l-.371.515a8.56,8.56,0,0,1-2.621-3.905c-.149-.613-.362-1.21-.54-1.817a.918.918,0,0,1-.061-.381.678.678,0,0,1,.18-.382c.255-.224,1.043.01,1.084.345a7.942,7.942,0,0,0,.7,1.872c.106.277.274.529.385.8a1.734,1.734,0,0,0,1.038.878c.065-.306-.123-.478-.228-.688a8.12,8.12,0,0,1-.985-3.107c-.032-.53.121-.6.644-.671a1.446,1.446,0,0,1,1.558.71,6.183,6.183,0,0,1,1.084,1.8l-.418-.041c-.212.44-.2.564.064.85l.386.416c-.142.608-.676,1.031-.475,1.737" transform="translate(-241.834 -97.853)" fill="#fe1a58"/>
        <path id="Path_16272" data-name="Path 16272" d="M19.007,173.718c-.088.378-.173.758-.265,1.135-.017.071-.044.172-.1.2-.417.194-.443.688-.755.966a2.17,2.17,0,0,0-.32.51c-.483,0-.483,0-.749-.3l.363-.241-.175-.305-.455.267a2.132,2.132,0,0,1,.732-1.224c-.2,0-.3-.026-.36,0-.269.124-.538.253-.794.4a1.5,1.5,0,0,1-1.014.088c.039-.3.5-.281.384-.664l-.646.415-.32-.834c.086-.212.449-.261.245-.589l-.575-.053-.152-.532a.858.858,0,0,1,.2-.077q2.086-.048,4.172-.09a.669.669,0,0,1,.641.36.4.4,0,0,1-.079.588c-.012-.1-.024-.2-.039-.333l-1.522,1.906c.515-.091,1.164-.778,1.572-1.59" transform="translate(-9.837 -120.928)" fill="#fe1a58"/>
        <path id="Path_16273" data-name="Path 16273" d="M362.158,135.788a4.981,4.981,0,0,0,.363,2.925c-.375.084-.376.085-.556-.161a1.328,1.328,0,0,0-.188-.275c-.6-.478-.615-1.19-.746-1.853a.393.393,0,0,1,.33-.5c.232-.056.471-.084.8-.141" transform="translate(-252.667 -95.034)" fill="#fe1a58"/>
        <path id="Path_16274" data-name="Path 16274" d="M373.161,135.793a6.685,6.685,0,0,1-.8-1.794c-.1-.258.083-.442.355-.379a1.564,1.564,0,0,1,.353.192,1.15,1.15,0,0,1,.782-.519c-.01.147-.01.269-.027.388-.05.345-.095.692-.167,1.033a2.129,2.129,0,0,1-.193.447c-.1.22-.213.437-.308.631" transform="translate(-260.588 -93.289)" fill="#fe1a58"/>
        <path id="Path_16275" data-name="Path 16275" d="M.058,146.117a2.056,2.056,0,0,1,1.161,1.305c.04.09-.091.309-.2.4-.083.069-.257.029-.39.033-.011,0-.021-.034-.036-.039-.58-.212-.672-.638-.54-1.181a2.441,2.441,0,0,0,.006-.518" transform="translate(0 -102.263)" fill="#fe1a58"/>
        <path id="Path_16276" data-name="Path 16276" d="M58.523,175.236q-.066-1.134-.132-2.269l.157-.007a4.582,4.582,0,0,1-.025,2.276" transform="translate(-40.866 -121.05)" fill="#fe1a58"/>
        <path id="Path_16277" data-name="Path 16277" d="M366.589,147.438l-.335.166-.326-.683c.473-.031.473-.031.661.517" transform="translate(-256.103 -102.818)" fill="#fe1a58"/>
        <path id="Path_16278" data-name="Path 16278" d="M185.708,17.892c.312.247.312.247.286.678-.327-.117-.367-.337-.286-.678" transform="translate(-129.947 -12.522)" fill="#fe1a58"/>
        <path id="Path_16279" data-name="Path 16279" d="M52.884,80.391c.1.152.486.229.135.544-.156-.163-.294-.3-.135-.544" transform="translate(-36.962 -56.263)" fill="#fe1a58"/>
        <path id="Path_16280" data-name="Path 16280" d="M19.629,181.809l.567-.152c-.1.384-.1.384-.567.152" transform="translate(-13.738 -127.137)" fill="#fe1a58"/>
        <path id="Path_16281" data-name="Path 16281" d="M292.335,33.113l-.038.337-.082.019c-.033-.064-.091-.128-.091-.192s.059-.123.092-.185l.12.02" transform="translate(-204.449 -23.161)" fill="#fe1a58"/>
        <path id="Path_16282" data-name="Path 16282" d="M4.5,135.866l-.421.3c.068-.3.068-.3.421-.293v0" transform="translate(-2.851 -95.089)" fill="#fe1a58"/>
        <path id="Path_16283" data-name="Path 16283" d="M254.044,70.4a1.617,1.617,0,0,1-.067.474c-.222.431-.471.847-.75,1.34-.031-.457.122-.779.817-1.814" transform="translate(-177.224 -49.274)" fill="#fe1a58"/>
        <path id="Path_16284" data-name="Path 16284" d="M314.76,87.057c.058.355-.147.5-.465.556l.465-.556" transform="translate(-219.966 -60.929)" fill="#fe1a58"/>
        <path id="Path_16285" data-name="Path 16285" d="M28,148.746l.294.693c-.362-.146-.405-.322-.294-.693" transform="translate(-19.56 -104.103)" fill="#fe1a58"/>
        <path id="Path_16286" data-name="Path 16286" d="M81.315,195.939c-.2-.012-.355,0-.365-.026-.108-.33-.5-.538-.387-.969a6.369,6.369,0,0,1,.142-.971.452.452,0,0,1,.416-.318,1.085,1.085,0,0,1-.009.427c-.129.263-.014.458.061.7a6.611,6.611,0,0,1,.144,1.155" transform="translate(-56.37 -135.534)" fill="#fe1a58"/>
        <path id="Path_16287" data-name="Path 16287" d="M84.134,199.389c-.193.125-.32.116-.338-.094s0-.434,0-.735l.342.829" transform="translate(-58.64 -138.967)" fill="#fe1a58"/>
        <path id="Path_16288" data-name="Path 16288" d="M78.975,199.257l-.329.021-.017-.112.319-.066.028.157" transform="translate(-55.03 -139.345)" fill="#fe1a58"/>
        <path id="Path_16289" data-name="Path 16289" d="M84.767,186.2q.021-.166.043-.332l.057,0v.325l-.1,0" transform="translate(-59.326 -130.082)" fill="#fe1a58"/>
        <path id="Path_16290" data-name="Path 16290" d="M84.922,196.137v.337H84.87c-.005-.112-.011-.225-.017-.337l.069,0" transform="translate(-59.386 -137.271)" fill="#fe1a58"/>
      </g>
    </g>
  </g>
</svg>
